<svg xmlns="http://www.w3.org/2000/svg" width="95" height="64" fill="none" fill-rule="evenodd" xmlns:v="https://vecta.io/nano"><path d="M48.668 13.173c-1.578 0-1.109-1.289-1.109-3.05 0-2.055-4.833-1.941-6.794-1.941-3.761 0-7.194.811-10.261 1.525l.171.106c.533.238 4.05.229 5.953 2.505.505.604.848 1.116 1.224 1.826l4.017-.282c.613.015 4.897.353 5.398.573 1.403.617.291 1.973.291 3.037 0 1.55-.171 2.219 1.525 2.219 2.718 0 8.849-4.587 11.566-5.627 7.044-2.696 15.828 1.205 22.386-3.681.594-.443 1.075-.823 1.267-1.646-1.313-.306-2.098 1.109-5.685 1.109-6.245 0-10.757-4.998-21.907.002-1.849.829-6.109 3.326-8.044 3.326z" fill="#f7931e"/><path d="M48.668 23.849c-1.578 0-1.109-1.289-1.109-3.05 0-2.255-7.148-2.14-8.597-1.803-.543 2.329-1.252 4.505-3.325 5.966l-.835.551 3.248-.635c3.358-.515 3.24-.173 5.349-.197.839-.009 1.116.075 1.806.135 4.315.37 2.353 1.505 2.353 3.332 0 1.55-.171 2.218 1.525 2.218 2.935 0 8.5-4.453 11.567-5.627.763-.292 1.389-.486 2.26-.651 5.832-1.103 13.031.737 18.343-1.902 1.104-.549 2.749-1.488 3.049-2.774-1.368-.319-1.857 1.109-5.962 1.109-3.597 0-7.194-2.218-12.757-2.218-4.768 0-8.815 2.174-12.663 4.114-.868.438-3.115 1.433-4.252 1.433z" fill="#00a24e"/><g fill="#a08b63"><path d="M6.932 2.357h13.45c-.12.515-.393.778-.648 1.293l-4.253 7.81-.738 1.342-2.818 5.224c-.234.475-.464.798-.696 1.245L9.817 21.88c-.271.444-.542.878-.667 1.413.185.252 1.475 1.262 1.941 1.387.153-.655.487-1.011.786-1.571l7.645-13.846C20.786 7.187 23.705 1.456 24.68 0H6.932v2.357zm12.203 11.647c.756.176 1.185.656 1.941.832l5.226-9.333.848-1.509c.242-.399.76-1.214.859-1.637h9.567V0H27.177c-.516 0-.863 1.049-1.136 1.498l-1.973 3.573-.992 1.781-3.941 7.152zm32.307 35.358h3.605v3.883h-3.605v-3.883zm28.008 0h1.942c2.028-.012 1.664-.61 1.664 3.606h-3.883c.92-1.739.43-2.418.277-3.605zm-15.945-5.546c.049.592.228.656.277 1.248 1.456-.121 2.682-.913 3.605 3.05H47.976v1.248h2.08v3.883c-.779 0-2.175-.039-1.11 1.664.344.55 2.497 2.785 2.497-.416h3.605v4.16h1.525v-9.29c.601 0 .908.101 1.261.111.423.013.604-.111 1.235-.111h4.437v1.387c-2.114 0-4.853-.396-4.853 2.08 0 .691.545 1.235.832 1.664-.886.236-.971 1.456-.971 2.218 0 1.716 1.953 3.224 3.189 4.298l1.003-.938c-1.113-.765-2.805-2.154-2.805-3.637 0-2.055 4.298-2.18 4.298-.416 0 1.025-.489 1.023-1.248 1.387.045.538.216.87.416 1.248 1.496-.717 2.219-.924 2.219-2.912 0-.724-.659-1.378-1.11-1.663-2.309-1.456-4.436.708-4.436-1.388 0-1.043 3.646-.693 4.991-.693v-2.635c.557 0 .842.076 1.148.102.575.048.519-.102 1.209-.102v9.29h1.526v-9.29c.601 0 .907.101 1.26.111.368.011 2.93-.204 4.14-.104 2.643.219 1.143-.007 3.474-.007.461 0 .684 2.034 0 3.328-1.505-1.007-.449-.832-3.605-.832-.893 0-1.885.229-2.442.609-2.677 1.821-.056 5.116 1.748 6.324l1.003-.938c-2.453-1.345-3.318-4.236-1.267-4.595.711-.124 1.246-.152 2.067-.152.372 1.6 3.686 5.068 4.853 5.685l.864-.8c-.572-.818-2.426-2.035-3.499-3.637 1.282-.342-.222-.41 1.822-.16 1.542.189 2.209.16 3.725.16v4.298h1.386v-9.29c.601 0 .908.101 1.261.111.423.013.604-.111 1.235-.111h4.576c.319 0 .416.096.416.416 0 3.779.653 5.107-2.182 5.594-2.664.458-2.9-3.237-.314-3.237l1.941.139v-1.386c-1.001 0-2.5-.492-3.945.492-2.148 1.462-1.458 5.332 1.865 5.332 1.084 0 1.825-.505 2.635-.693v2.634h1.386v-9.29h1.664v-1.248h-25.93c-.623 0-.481-1.268-1.34-2.82-.977-1.767-2.819-2.144-4.206-1.478zM37.16 31.614c0-2.611 2.536-2.029 3.443-.669.353.529.932 1.439.995 2.195h-4.021c-.139-.598-.416-.76-.416-1.525zm-.971 1.525H8.181v1.248h1.248v2.357c0 .713-2.038 1.376-3.328.693.554-.828 1.109-.757 1.109-2.219C7.21 33.295 5.575 33 4.159 33c-1.07 0-1.445.375-2.218.555.045.538.216.87.416 1.248.246-.057 3.466-1.542 3.466.555 0 1.172-1.205 1.248-2.08 1.248 0 2.575.353.459 1.488 1.561 1.209 1.173.76 2.737-.102 2.737-1.385 0-1.686.039-2.737-1.422-.308-.428-1.023-1.799-1.145-2.321-.397.093-.918.258-1.248.416.385 1.653 2.26 4.714 4.437 4.714 2.496 0 3.262-1.229 2.773-3.328.95 0 1.591-.115 2.218-.416v5.13h1.387v-9.29h2.912v9.29h1.387v-9.29h10.538v1.803h-4.576c-.043.517-.217.734-.416 1.109 1.327.889 2.288 1.876 1.525 3.466-2.845.663-3.083-1.766-4.298-4.298-.538.045-.87.216-1.248.416.149.31.186.541.334.914.144.361.248.498.398.85 2.27 5.315 6.478 4.114 6.478 1.148 0-1.121-.656-1.68-1.109-2.357h2.912v5.824c0 .634 1.525.634 1.525 0v-8.874h2.357v8.874c0 .634 1.525.634 1.525 0v-8.874h5.824v1.525c-1.268 0-2.339.291-3.058.825-1.535 1.14-1.409 4.08.465 5.096 1.26.683 1.611.596 3.425.596l1.109 2.08c.668-.056.639-.274 1.248-.416l-1.109-1.941c1.571-.831.719-2.634-.693-2.634-1.286 0-1.109 1.125-1.109 1.664-1.854 0-2.912-.305-2.912-2.218 0-1.876 2.687-1.803 4.16-1.803v-2.773h3.328v9.29h1.387v-9.29h1.803v-1.248h-1.941c-.077-.928-.871-2.308-1.328-2.971-1.619-2.346-4.969-1.956-5.75-.085-.426 1.021-.179 2.183.283 3.056zm-7.487 16.534h3.466v3.744h-3.466v-3.744zm-13.45-.971c.018.812.218.531.277 1.248.666-.056 2.602-1.156 3.377-.049.766 1.095-.284 1.86-1.851 1.99v1.248c.662 0 .575-.094 1.109-.139.475.709 1.109.831 1.109 2.08 0 .992-1.667 2.071-3.489-.255-.355-.453-1.085-1.778-1.225-2.38-.625.014-.733.157-1.248.277.078.935 1.949 4.714 4.298 4.714 3.705 0 3.017-2.064 2.912-3.328.401 0 .823.035 1.215-.033.36-.062.516-.203 1.004-.244v4.992h1.387v-9.151h3.05v3.744c-1.041 0-1.387-.058-1.387.832 0 1.217 2.837 3.779 2.912.416h3.466v4.16c-2.303.536-1.988 4.437.832 4.437 1.158 0 1.565.011 2.635-.555-.158-.33-.323-.851-.416-1.248-3.655 1.934-4.448-1.734-1.386-1.802-.325-1.394-.139-8.057-.139-9.983h7.626v2.357c-1.482 0-3.681-.152-4.799.609-1.728 1.177-1.239 3.273-.021 4.627l1.77 1.697c.415-.278.687-.409.971-.832-.861-1.175-2.357-1.438-2.357-3.466 0-.762.533-1.118 1.14-1.217 1.233-.2 2.07-.17 3.297-.17v5.546h1.387v-9.151c2.088 0 1.802.266 1.802-1.387H21.491v1.387h1.248v2.218c0 .652-1.476 1.109-2.218 1.109-.405 0-.719-.186-1.109-.277.158-.59.277-.222.729-.935.947-1.493.186-3.641-2.532-3.641-.984 0-1.556.368-2.357.555zm30.505-11.126h4.16v3.05c0 .776-2.635 1.812-2.635-.277 0-1.398 2.197-.845 2.357-.832v-.971c-1.031 0-3.328-.237-3.328 1.941 0 1.75 1.817 2.584 3.605 1.387v1.941h.97c0-2.236-.457-4.132 1.803-3.605.268 1.152.194 1.482-.416 2.635.321.215.45.373.971.416.281-1.206.555-.303.555-2.635 0-1.108-1.171-1.892-2.912-.971v-2.08h4.16v6.24c1.402 0 .971.488.971-6.24h1.109v-.832h-11.37v.832zm-25.929 6.933c0 1.152 1.941 1.459 1.941 0s-1.941-1.152-1.941 0zm9.621-34.001a8.04 8.04 0 0 1 7.686 8.376 8.04 8.04 0 0 1-8.376 7.687c-.934-.04-1.823-.238-2.644-.567v-.989a7.11 7.11 0 0 0 2.683.649 7.131 7.131 0 1 0 .612-14.248 7.1 7.1 0 0 0-3.295.649v-.989a8.01 8.01 0 0 1 3.334-.567z"/><path d="M26.692 11.301a.5.5 0 0 1 .478.522.5.5 0 0 1-.869.317.5.5 0 0 1 .39-.839zm.882 14.706a.5.5 0 0 1 .355-.915.5.5 0 0 1 .201.902.5.5 0 0 1-.556.013zm1.986.141a.5.5 0 0 1-.328-.627.5.5 0 0 1 .921-.081.5.5 0 0 1-.594.709zm1.955-.377a.5.5 0 0 1-.478-.522.5.5 0 0 1 .869-.317.5.5 0 0 1-.39.839zm1.79-.87a.5.5 0 0 1-.396-.898.5.5 0 0 1 .78.496.5.5 0 0 1-.384.402zm1.504-1.305a.5.5 0 0 1-.676-.212.5.5 0 0 1 .594-.709.5.5 0 0 1 .081.921zm1.116-1.649a.5.5 0 0 1-.707-.031.5.5 0 0 1 .39-.838.5.5 0 0 1 .317.869zm.649-1.882c-.035.055-.081.103-.135.141a.5.5 0 0 1-.745-.208.5.5 0 0 1 .639-.669.5.5 0 0 1 .241.735zm.142-1.986a.5.5 0 0 1-.976-.106.5.5 0 0 1 .82-.428.5.5 0 0 1 .156.534zm-.377-1.954a.5.5 0 0 1-.522.478.5.5 0 0 1-.317-.869.5.5 0 0 1 .839.39zm-.87-1.79a.5.5 0 0 1-.38.597.5.5 0 0 1-.532-.757.5.5 0 0 1 .911.16zm-1.306-1.505a.5.5 0 0 1-.212.676.5.5 0 0 1-.709-.594.5.5 0 0 1 .922-.081zm-1.648-1.115a.5.5 0 0 1-.58.792.5.5 0 0 1 .039-.924.5.5 0 0 1 .54.132zm-1.883-.651a.5.5 0 0 1-.355.915.5.5 0 0 1-.201-.902.5.5 0 0 1 .556-.012zm-1.985-.14a.5.5 0 0 1 .328.628.5.5 0 0 1-.921.081.5.5 0 0 1 .594-.709z"/><path d="M28.95 19.735a.78.78 0 0 0 .178.008c.278 2.271-.239 3.293-.314 5.952l-.07-.003c.156-2.195-.254-3.97.207-5.957zm.315-.001c.058-.005.116-.019.174-.038.856 2.122.621 3.242 1.237 5.83l-.069.016c-.417-2.161-1.273-3.769-1.342-5.808z"/><path d="M29.567 19.652c.055-.02.107-.048.158-.082 1.376 1.828 1.439 2.971 2.704 5.311l-.062.033c-.962-1.979-2.205-3.311-2.8-5.263zm.274-.159a.78.78 0 0 0 .132-.12c1.802 1.41 2.159 2.497 3.986 4.431l-.052.048c-1.442-1.663-2.987-2.627-4.066-4.359zm.222-.223a.77.77 0 0 0 .096-.15c2.106.895 2.732 1.854 4.997 3.248l-.037.06c-1.823-1.233-3.565-1.765-5.056-3.158zm.156-.273c.024-.053.042-.11.054-.17 2.266.32 3.118 1.083 5.668 1.844l-.021.067c-2.08-.719-3.9-.782-5.701-1.741z"/><path d="M30.301 18.692a.78.78 0 0 0 .008-.178c2.271-.278 3.293.239 5.952.314l-.003.07c-2.195-.156-3.97.254-5.957-.207zm-.002-.315a.78.78 0 0 0-.038-.174c2.122-.856 3.242-.621 5.83-1.237l.016.069c-2.161.417-3.769 1.273-5.808 1.342z"/><path d="M30.217 18.073a.78.78 0 0 0-.082-.158c1.828-1.376 2.971-1.439 5.311-2.704l.033.062c-1.98.962-3.311 2.205-5.263 2.8zm-.158-.273c-.034-.048-.074-.091-.12-.132 1.41-1.802 2.497-2.159 4.431-3.986l.048.052c-1.663 1.442-2.627 2.987-4.359 4.066zm-.224-.222a.77.77 0 0 0-.15-.096c.895-2.106 1.854-2.732 3.248-4.997l.06.037c-1.233 1.823-1.765 3.565-3.158 5.056z"/><path d="M29.562 17.422c-.053-.024-.11-.042-.17-.054.32-2.266 1.083-3.118 1.844-5.668l.067.021c-.719 2.08-.782 3.9-1.742 5.701z"/><path d="M29.257 17.341a.75.75 0 0 0-.178-.008c-.278-2.271.239-3.293.314-5.952l.07.003c-.156 2.195.254 3.97-.207 5.958zm-.314.001c-.058.006-.116.019-.174.038-.856-2.122-.621-3.242-1.237-5.83l.069-.016c.417 2.161 1.273 3.769 1.342 5.808z"/><path d="M28.638 17.424c-.055.02-.107.048-.158.082-1.376-1.828-1.439-2.971-2.704-5.311l.062-.033c.962 1.979 2.205 3.311 2.8 5.263zm-.272.158a.78.78 0 0 0-.132.12c-1.802-1.41-2.159-2.497-3.986-4.431l.052-.048c1.442 1.663 2.987 2.627 4.066 4.359zm-.222.224a.78.78 0 0 0-.096.15c-2.106-.895-2.732-1.854-4.997-3.248l.037-.06c1.823 1.233 3.565 1.765 5.056 3.158zm-.157.273c-.024.053-.042.11-.054.17-2.266-.32-3.118-1.083-5.668-1.844l.021-.067c2.08.719 3.9.782 5.701 1.741z"/><path d="M27.906 18.383a.75.75 0 0 0-.008.178c-2.271.278-3.293-.239-5.952-.314l.003-.07c2.195.156 3.97-.254 5.958.207zm.001.315a.78.78 0 0 0 .038.174c-2.122.856-3.242.621-5.83 1.237l-.016-.069c2.161-.417 3.769-1.273 5.808-1.342z"/><path d="M27.989 19.003c.02.055.048.107.082.158-1.828 1.376-2.971 1.439-5.311 2.704l-.033-.062c1.979-.962 3.311-2.205 5.263-2.8zm.159.272c.034.048.074.091.12.132-1.41 1.802-2.497 2.159-4.431 3.986l-.048-.052c1.663-1.442 2.627-2.987 4.359-4.067z"/><path d="M28.372 19.498a.78.78 0 0 0 .15.096c-.895 2.106-1.854 2.732-3.248 4.997l-.06-.038c1.233-1.823 1.765-3.565 3.158-5.056zm.273.156c.053.024.11.042.17.054-.319 2.266-1.083 3.119-1.844 5.668l-.067-.021c.719-2.08.782-3.9 1.741-5.701zm.482-1.67c.073.003.144.021.211.051a.53.53 0 0 1 .175.128.57.57 0 0 1 .113.185c.025.068.036.141.033.214-.005.11-.042.216-.107.304s-.155.156-.258.194-.215.044-.322.018a.56.56 0 0 1-.278-.164.55.55 0 0 1-.14-.291c-.017-.109-.001-.22.045-.319s.121-.183.215-.24.203-.085.313-.08z"/></g></svg>