<svg xmlns="http://www.w3.org/2000/svg" xmlns:xlink="http://www.w3.org/1999/xlink" width="170" height="101" fill="none" xmlns:v="https://vecta.io/nano"><g clip-path="url(#f)"><path d="M146.535 40.635c-.037.058.033.142.07.137a.67.67 0 0 1 .427.069c.23.115.817-.389.124-.5-.007-.001-.014-.002-.022-.002-.162 0-.545.211-.599.296z" fill="url(#B)"/><path d="M146.953 40.151c.081.182 1.027-.22 1.134-.375.051-.073-.011-.104-.127-.104-.333 0-1.11.248-1.007.478z" fill="url(#C)"/><path d="M146.219 40.241c-.044.054-.076.078-.149.077-.315-.007-.496.124-.561.255-.093.191.062.381.419.145.158-.104.313-.204.496-.266.262-.089.394-.366.254-.387-.051-.008-.095-.011-.133-.011-.166 0-.23.069-.326.187z" fill="url(#D)"/><path d="M147.756 36.143c-.076.056-.103.197-.18.228-.053.021-.122-.036-.196-.093-.085-.066-.177-.131-.258-.078-.458.297-.263.269-.488.962-.336 1.042.231.457.201.954-.009.145-.068.274-.074.518-.008.29.543.183.622-.259.1-.57.088-.716.203-.72.217-.009.023.346.336.385.199.025.038.251.34.199.238-.041.499-.343.3-.456-.262-.147.107-.227-.217-.498-.042-.035-.07-.108-.072-.165-.012-.399-.386-.455-.178-.658.044-.044.087-.099.142-.122.158-.064.292-.46.05-.46-.102 0-.27.07-.531.263z" fill="url(#E)"/><path d="M146.363 25.855c-.756.051-.026 1.329-.32 1.483-.106.055-.13.137-.075.253.072.154.076.523.329.604.13.041.186.097.176.232-.007.101.111.142.13.215.024.092-.104.271-.03.313.088.05.087.149.132.22.325.507.618-.138.434-.399-.029-.041-.082-.073-.092-.116-.025-.116.023-.246.15-.208s.206.014.269-.012c.091-.037.151-.075.301.088s.443.014.387-.125c-.027-.068-.18-.441-.253-.443-.227-.006-.468-.107-.666.092-.076.077-.095.018-.122-.045-.442-1.017.082-.744.003-1.218.016-.275.029-.287-.043-.376-.213-.265.034-.563-.553-.563l-.157.006z" fill="url(#F)"/><path d="M111.821 30.851c.259.664 1.204.019.127-.179-.096-.002-.106.102-.127.179z" fill="url(#G)"/><path d="M122.987 55.36c.358 0 .177-.343 0-.362l-.107-.006c-.441 0-.228.368.107.368z" fill="url(#H)"/><path d="M125.543 34.048c.013.385-.126.589-.187.974.194.889.005.64.409 1.056.149.154.821.099 1.034-.323.307-.608-.824-1.836-1.163-1.836-.061 0-.097.04-.093.13z" fill="url(#I)"/><path d="M110.229 42.794c-.01.048.008.102-.003.149-.06.265-.169-.029-.297.436-.026.092-.064.168-.16.192-1.015.256-.963-.04-1.009.352-.066.564.172.587.436 1.169.343.755-.754-.071.629 1.921.141.203.757.698 1.26.651.584-.056.083-1.454.197-1.974.157-.713-.176-1.173.114-1.321.117-.06.136-.128.057-.204-.334-.323-.167-.77-.744-1.376-.08-.085-.202-.149-.303-.149-.083 0-.153.043-.177.154z" fill="url(#J)"/><path d="M135.606 38.295c.293-.003.385-.225.32-.275-.211-.16-.363-.22-.462-.22-.243 0-.166.363.142.495z" fill="url(#K)"/><path d="M140.947 39.175c.029.367.983-.18.364-.394-.247.042-.393.034-.364.394z" fill="url(#L)"/><path d="M145.072 23.217c.131.925.663.98.726.638.029-.154.185-.565.05-1.113-.038-.154.202-.283-.084-.483a.4.4 0 0 0-.22-.086c-.279 0-.344.543-.472 1.044z" fill="url(#M)"/><path d="M144.719 33.964c-.016.182-.185.121-.313.231-.58.496-.366.329-.741.928-.41.656-.95.252-1.009.95-.024.292-.134.276-.463.276v-.006c-.135 0-.322-.023-.42.098-.391.481-.269.845-.028 1.404.174.403.444.112.459.447.017.381-.143.819.714.48.037-.014.131.019.13.022-.022.193.24.076.553-.041.328-.122.711-.245.881-.012.194.265.292-.145.886-.304.379-.101.11-.461.286-.869.067-.155-.122-.241.087-.5.409-.508.369-.148.39-1.024.008-.358.668-.246.525-.517-.156-.294-.413-.192-.417-.452-.006-.267-.475-.641.013-1.058.105-.09.244-.152.141-.331-.01-.018.019-.068.041-.093.132-.154.351-.306.085-.395-.496-.166-.509-.073-.632-.256-.088-.132-.184-.186-.281-.186-.423 0-.872 1.042-.887 1.207z" fill="url(#N)"/><path d="M98.678 33.779c0 14.412 11.651 26.137 25.973 26.137s25.973-11.725 25.973-26.137-11.651-26.136-25.973-26.136-25.973 11.725-25.973 26.136zm8.63-17.652c.234-.077.392-.092.375-.269-.007-.068-.027-.127-.08-.164l.403-.378c.136-.039.191.099.318.187.191.132-.119.156-.205.669-.043.25-.469.563-1.016 1.343-.397.565-.782.323-.917.064-.055-.107-.108-.181-.159-.236a25.65 25.65 0 0 1 1.149-1.232.45.45 0 0 0 .117.016zm34.008 10.239c-.001-.025.004-.055-.007-.074-.293-.499.733-.619 1.126-1.103.152-.186.449-.193.513-.464.004-.016.041-.028.065-.034 1.029-.245 1.521-2.043 1.674-2.195s-.023-.314.02-.469.175-.985.267-1.161c.254-.487.07-.227.086-.632.012-.344-.097-.376-.005-.589a24.82 24.82 0 0 1 3.827 8.89c-.282-.245-.823.049-.458.399.269.257-.243.211.122.644.26.309-.115.21-.248.483-.009.018-.056.023-.085.024-.048 0 .032-.311.034-.362.005-.142-.185-.119-.216-.235-.054-.198-.213-.165-.409-.132-.171.028-.306.071-.24.53.024.177.158.163.263.149.089-.011.157-.023.125.077-.111.345-.197.369.018.522.44.314.391-.262.624-.317.252-.059.333-.228.533-.683.11-.248-.185-.166.069-.436l.124.72c-.06.014-.103.041-.099.091.037.406-.216.343-.327.633-.062.162-.143.149-.242.138s-.203-.023-.325.117c-.027.03-.447.515-.45.555-.032.414-.08.588.073.564.214-.033.161-.117.255-.328.073-.165.539-.458.539-.231-.001.348-.191.624.614.632.076.001.142-.022.197-.059.04.578.062 1.161.062 1.749l-.006.461c-.018-.026-.051-.035-.092-.028-.268.045-.332.395-.533.504-.692.376-.88.139-1.258.32-.206.098-.335.357-.189.522 1.89-.546 1.683-.446 2.019-1.065.025-.046.041-.084.051-.118a25 25 0 0 1-.728 5.44c-.01.009-.017.017-.028.026-.12.109-.183.266-.088.424-.361 1.347-.831 2.65-1.401 3.897a2.55 2.55 0 0 0-.179.232c-.487.686-2.01 1.129-2.683 1.704-.241.206-.502.376-.792.504-.363.16-.145.334-.49.818-.128.18-.138.368-.041.57.191.398-.27.252-.149.639.19.609.206.627.168.755-.158.54.406.33-.502 1.215-.093.091.067.144.27.162-4.528 4.892-10.981 7.958-18.133 7.958-11.735 0-21.59-8.249-24.142-19.288 1.378 2.626 3.62 5.898 5.797 7.814.899.791.559-.307.577-.519.02-.227-.061-.349-.345-.867-.099-.18-.079-.179.035-.179.043 0 .1 0 .168-.009.114-.016.195-.123.145-.216-.141-.265-.19-.57-.395-.811-.142-.168-.723-.959-.39-1.014s.199-.43.776-.34c.326.051.591-.479.389-.872-.142-.278-.32-1.086-.425-1.571-.123-.568-.437-.442-.661-1.297-.211-.802.048-.499-.277-1.03-.295-.481-.024-.788.18-1.385.03-.087.06-.162.142-.213.811-.511.343-.699 1.798-1.504.259-.008.437-.171.62-.328 1.232-1.056 1.071-1.398 1.457-1.974.295-.44.431-.554.613-1.065.013-.036.21-.565.194-.599-.123-.269.186-.508-.069-.626-.269-.125-.34-.064-.417-.003-.049.038-.101.077-.208.068-.678-.054-1.208-.182-1.326-.117-.049.027-.135.035-.181.01-.202-.11-.376-.092-.522-.074-.174.021-.311.043-.412-.148-.336-.628-.382-.676-.212-.783.025-.016.049-.068.042-.096-.048-.188.021-.126.175-.064.144.057.361.115.623-.03.201-.111.294-.07.4-.028a.47.47 0 0 0 .359.015c.282-.087.389-.072.483-.056.053.009.103.018.178.008.161-.022.283-.197.463-.215 1.843-.186 1.117-.259 1.367-.49.243-.223.535-.195.8-.168.29.03.548.06.677-.238.061-.139.176-.138.294-.136.133.002.269.004.334-.198s.219-.193.363-.187c.179.007.341.014.299-.361-.017-.152.372-.308.47-.477.399-.686.95-.795.597-1.176-.344-.372-.168-.569-.776-.878-.592-.3-.527-.854-.35-1.17.091-.163-.081-.453-.264-.248-.262.291-.579.511-.915.702-.164.093-.173.063-.3.033-.089-.021-.237-.042-.536-.021-.419.03-.188-.526-.119-.829.061-.269-.114-.512-.312-.357-.048.038-.088.089-.139.122-.016.01-.08-.02-.085-.04-.039-.175.139-.309-.054-.771-.842-2.013.13-1.526.385-1.496.307.815.104 1.355.479 1.441.139.032.194.155.258.262.48.798 1.223.909 1.502.66.077-.07.212-.046.276.083.146.294-.443.647 1.127 1.1.621.179.636.342 1.371.348.662.005.648.103 1.042.101 1.242-.007.554.122.797.284.275.185.206.629.58.748.141.044.284.375.481.514.21.149-.113.164-.033.371.05.132.602.782.693.889.118.14.7.169.955-.154.401-.507-.038 1.487.339 2.018 0 0 .025.716.201.979.083.125.058.278.158.403.446.559.365 1.482.825 1.952.249.255.581 1.892 1.109 2.026.572.144.458-.391.717-.491.302-.117.286-.171.397-.491.082-.233.385-.024.384-.462-.002-.378-.218-.458-.001-.716.293-.35.151-1.386.08-1.575-.147-.392.323-.359.46-.513.262-.293.703-.128.741-.543.028-.307.703-.478 1.119-1.081a1.71 1.71 0 0 1 .754-.61c.794-.334.265-.738.639-.945.266-.147.73.015 1.137-.209.252-.139.664.022.707-.414.013-.127.231-.108.272-.038.213.367.176.937.918 1.255.405.174.079.37.445.647.837.635-.145 1.362.45 1.619.542.234.631-.096 1.23-.5.264-.178.587.595.538.892-.005.027-.079.044-.027.08.196.134.184.414.382.544.059.169.22.316.088.527-.029.046-.002.157.037.211.111.159.237 1.163.04 1.344-.017.014-.031.056-.023.067.191.268-.057.622.269.766.378.168.983.981.979 1.097-.03.802.772 1.653.772 1.653-.629 0-.52-.339-1.363-.606-.31-.098-.495-.646-.899-.61-.087.008-.269-.007-.468-.022-.391-.029-.852-.059-.805.085s.068.31.161.409c.17.178.353.349.611.422.567.159.583.684.85.726.693.108.257.794.805.942.188.051.155.104.544.553.285.329.176.646.785.972.411.22.072.287.828.559.452.163.472.44.844.264.153-.073.531-.087.426.168-.099.241-.026.335.021.326.177-.034.239.017.299.069s.116.101.279.072.317-.092.468.032c.019.016.071.004.102-.009.424-.166.823-.163 1.226-.161.446.003.896.006 1.39-.22.042-.019.128-.012.228-.005.26.018.622.036.594-.412-.013-.222-.199-.164-.379-.107-.111.036-.221.071-.286.041.076-.154.452-.162.393-.385-.021-.077-.317-.008-.388.014-.909.281-1.197-.045-1.532.362-.148.18-.61.158-.777.058-.052-.031-.359-.029-.439-.051-.315-.081-.874-.026-.874-.026.206-.325-.166-1.015.282-1.26.3-.165-.045-.342-.148-.521-.206-.356-.612-.185-.732.015-.107.177-.087-.158-.225-.277-.208-.18-.436-.164-.436-.164.13-.571.223-.289-.278-.749-.183-.167.731-.084.479-.503-.149-.247-.494-.421-.449-1.071.051-.758-.999-1.139-1.142-1.293-.098-.105-.206-.099-.302-.093-.132.008-.245.016-.286-.264-.023-.157-.077-.311-.187-.398-.271-.215-.003-.427-.372-.482-.735-.108.212-1.108.05-1.781-.054-.226.184-.502.251-.361.256.538-.296.167.994.523.425.118.106.505.451.522.153.007.17.184.298.208.749.147.559.137.657.807.015.108.153.16.234.089.065-.056.115-.131.17-.198.375-.461.32-.143.657-.811.191-.379 1.892-.654.824-2.809-.489-.985-1.183-.849-1.473-1.391-.226-.422-.388-.182-.489-.546-.128-.468.245-.772.757-1.495.218-.309.737-.258.768-.136.051.207.296.495.213.561-.638.503-.543.456-.461.952.059.359.638.141.791.095.096-.174.293-.29.315-.502.017-.167.059-.322.133-.468.046-.088-.067-.27-.236-.251-.008.001-.015.001-.021.001-.065 0-.095-.039-.098-.109zm-35.221-6.496c.067-.016.136-.032.199.062.149.222.128 2.131.265 2.363.4.676.053 1.32.101 2.06.023.359.377.536.307.827.248.33.049.667.305 1.253.44 1.006-.055 1.048.162 2.146.076.381-.049.824-.462-.311-.229-.627-.536-.686-.523-.977 0-.012 0-.032-.008-.036-.307-.177-.116-.479-.178-.673.116-1.182-.578-1.226-.305-2.238.128-.475.212-.957 0-1.436-.301-.683.058-.464-.068-1.172-.034-.186.045-.368.017-.556-.034-.223-.098-1.347.083-1.305.01.002.02.003.029.003.025 0 .05-.006.076-.012z" fill="url(#O)"/><path d="M132.848 31.361l.034-.004c-.014 0-.024.002-.034.004zm-.045.006c.009 0 .017.001.025.002.006-.003.013-.006.02-.008l-.045.006zm-.008.041c-.011.034.02.078.054.07s.042-.046.029-.072c-.01-.019-.029-.031-.05-.036-.015.009-.027.021-.033.038z" fill="url(#P)"/><path d="M132.591 31.804c-.046.07-.095.14-.099.227-.001.04.085.214.086.213-.077.177-.087.383-.028.567.063-.1.029-.264.133-.319.021-.011.045-.015.064-.028s.036-.038.026-.059-.03-.024-.045-.038c-.025-.022-.028-.06-.029-.094l-.01-.338c-.002-.061.1-.204.038-.25-.01-.008-.02-.011-.03-.011-.05 0-.084.097-.106.13z" fill="url(#Q)"/><path d="M132.466 32.966l-.007-.012zm-.083.034c-.019.031-.018.07-.015.107s.007.065.025.092.05.046.081.037c.047-.014.056-.078.047-.127s-.028-.1-.055-.144c-.006-.002-.013-.004-.02-.004-.024 0-.05.016-.063.038z" fill="url(#R)"/><path d="M132.572 33.751c.003.031.037.058.065.045.042-.02.02-.083-.008-.121l-.013-.002c-.025.018-.046.046-.044.078z" fill="url(#S)"/><path d="M132.734 34.125l-.003-.014c-.034.004-.029.058-.003.079s.064.025.088.05c.029.03.027.079.028.121s.016.094.057.105.082-.034.08-.077-.031-.08-.066-.106c-.016-.012-.032-.022-.045-.038-.018-.024-.022-.056-.029-.085s-.019-.062-.047-.074c-.04-.003-.065.016-.06.039z" fill="url(#T)"/><path d="M132.974 34.724c.006.041.035.074.063.105l.131.146c.007.007.014.014.022.014s.014-.004.02-.009a.1.1 0 0 0 .006-.136c-.028-.03-.072-.038-.108-.059-.026-.015-.048-.047-.046-.075l-.027-.079c-.042.001-.068.05-.061.091zm.088-.012l.016.047-.005-.074c-.007.008-.011.017-.011.027z" fill="url(#U)"/><path d="M121.664 34.268l-.023-.006a1.25 1.25 0 0 0 .072.295c.074-.029.098-.131.071-.207s-.091-.132-.152-.184l.032.102z" fill="url(#V)"/><mask id="A" maskUnits="userSpaceOnUse" x="-5" y="-16" width="180" height="128"><path d="M-4.462-15.432h178.481v126.993H-4.462V-15.432z" fill="#fff"/></mask><g mask="url(#A)"><path d="M100.613 74.457l.397.017.853.034 1.024-.038.284-.013.004.341c-.323 0-.527.041-.612.122s-.127.282-.127.601v4.059c0 .331.042.534.127.61s.289.113.612.113v.337l-.813-.034-.436-.008-.473.008-.84.034v-.337c.326 0 .53-.04.613-.122s.123-.282.123-.601v-4.059c0-.325-.042-.527-.126-.606s-.287-.118-.61-.118v-.341zm3.214-.001l.562.031.412.011.362-.011.562-.031 3.331 4.521v-3.276c0-.409-.049-.663-.146-.759s-.321-.145-.669-.145v-.341l.585.031.443.011.314-.011.568-.031v.341c-.306.008-.504.057-.593.145s-.134.339-.134.751v2.528l-.006 1.362-.023 1.106-.443-.051-3.971-5.375v4.134c0 .426.048.684.144.772s.32.132.671.132l-.004.337-.615-.034-.401-.008-.284.008-.64.034v-.337c.327-.003.536-.05.63-.143s.14-.346.14-.761V75.52c0-.322-.044-.524-.13-.603s-.283-.12-.589-.12h-.08l.004-.341zm8.795.342v5.497h.602c.367 0 .651-.02.85-.059s.374-.105.524-.198c.332-.193.581-.5.747-.921s.248-.949.248-1.585c0-.976-.189-1.675-.566-2.099s-1.014-.635-1.908-.635h-.497zm-1.798-.341l.399.019.646.006.774-.012.835-.013c1.04 0 1.853.275 2.441.825s.882 1.311.882 2.284c0 .984-.279 1.743-.836 2.275s-1.351.799-2.382.799c-.173 0-.44-.006-.803-.017l-.823-.017-.577.008-.556.025v-.337c.31 0 .505-.041.588-.124s.123-.283.123-.6V75.52c0-.32-.041-.519-.123-.597s-.278-.121-.588-.126v-.341zm6.626 0l.397.017.853.034 1.024-.038.284-.013.004.341c-.323 0-.527.041-.612.122s-.127.282-.127.601v4.059c0 .331.042.534.127.61s.289.113.612.113v.337l-.813-.034-.436-.008-.473.008-.84.034v-.337c.326 0 .53-.04.613-.122s.123-.282.123-.601v-4.059c0-.325-.042-.527-.125-.606s-.288-.118-.611-.118v-.341zm5.708 1.308l-.819 2.301h1.592l-.773-2.301zm.146-1.388h.456l1.977 5.472c.066.185.144.307.232.366s.229.088.424.088v.337l-.779-.034-.391-.008-.464.008-.811.034v-.337c.212-.005.363-.034.453-.086s.136-.135.136-.25a.92.92 0 0 0-.006-.109.41.41 0 0 0-.019-.088l-.456-1.359h-1.822l-.351.997-.021.063c-.083.238-.125.404-.125.496 0 .118.033.2.098.246s.199.076.399.09v.337l-.432-.026-.379-.008-.344.008-.429.026v-.337c.189 0 .328-.029.414-.088s.166-.191.238-.395l2.002-5.442z" fill="#2e2e75"/><path fill-rule="evenodd" d="M57.798 75.023l-.008.627-.002.109-.008.327.002.055-.01.122-.002.041-.01.791-.002.055v.055l-.005.381.002.055v.163l-.01.123-.002.041.003.068-.003.041.003.068-.003.041.003.068-.003.041-.001.273-.98-.881-.01-1.981.001-.055v-.654c.002-.002-.011-.027-.009-.024l.027-.027c.033.015-.014.011.038.011h.041l.068-.004.041.004.068-.004.041.004.068-.004.041.004.068-.004.041.004.068-.004.04.004.068-.004.041.004.068-.004.041.004.068-.004.041.004.081-.002v.07zm-5.152 5.075c-.084.178-.253.519-.428.626-.144.088-.159.141-.366.205-.132.041-.226.011-.368.011-.226-.413-.422-1.098-.031-1.489.21-.21.42-.409.701-.549.263-.132.547-.271.779-.32 0 .453-.151 1.225-.289 1.516zm-.895-4.262c-.098.145-.271.278-.455.278h-.203c-.085 0-.534-.139-.542-.136-.006-.074-.053-.139-.071-.257a.49.49 0 0 1 .008-.202c.035-.109.151-.389.293-.401l-.013-.027c.034-.003.228-.121.287-.148.045-.02.175-.072.238-.09.164-.048.357-.089.518-.089l.059.49-.007.055v.054c.008.09-.04.365-.112.472zm33.819 8.799l-.013.012.016-.026-.01.01-.535-.487-.035-.033-.291-.266-.012.011.016-.026c-.132-.012-.063-.156-.286-.137l-.035.244c-.038.408-.159 1.045-.354 1.381l-.152.286c-.047.08-.156.239-.201.287-.133.144-.399.439-.561.526-.059.032-.097.07-.145.099l-.172.101-.37.173c-.08.041-.249.101-.335.125L81.77 87c-.129.044-.558.114-.706.122l-.383.035-.353.013-.054-.001h-.325l-.149-.008-.013-.004c-.256 0-.335-.003-.591-.031l-.524-.057c-.119-.004-.385-.049-.569-.08l-.495-.092c-.071-.024-.5-.104-.57-.116-.165-.028-.37-.089-.533-.119-.182-.034-.354-.094-.543-.137l-.55-.147c-.141-.062-.378-.113-.528-.157l-.257-.087c-.014-.005-.205-.064-.245-.07-.15-.023-.353-.13-.506-.166s-.31-.122-.495-.164c-.155-.036-.422-.172-.571-.206-.154-.036-.351-.134-.502-.184l-1.088-.419-2.027-.849-2.01-.923-.496-.236-.506-.241-.542-.267c-.052-.014-.357-.182-.441-.218-.047-.021-.158-.083-.239-.127l-.233-.119-.26-.146-.236-.133-1-.616.388-.266-.01-.02.011.012.267-.213-.007-.017c.063-.006.254-.209.3-.259s.265-.233.243-.287h.04c-.016-.039.108-.162.146-.208.046-.054.101-.157.144-.223.115-.174.154-.277.227-.426a2.78 2.78 0 0 0 .255-.957l.024-.3-.001-.109-.017-.149.007-.014c0-.213-.117-.744-.214-.97-.062-.145-.107-.284-.216-.465-.041-.068-.211-.357-.288-.364.016-.039-.048-.104-.109-.109l.015-.027-.545-.477-.035-.033-.239-.221.086-.001.054-.003h.693v.001h5.073v.717l-.005.235-.001.055-.006.218-.02.845-.003.055L68.46 77c-.036-.002-.034-.003-.081.001l-.055-.002-.176-.008-.054-.002h-.162l-.203.008c-.46.014-.999.1-1.439.437-.28.215-.348.379-.475.647a2.27 2.27 0 0 0-.118.733l-.002.054v.055l.035.467c.017.15.089.337.109.464.038.246.266.692.328.825a3.88 3.88 0 0 0 .481.737c.071.082.549.647.661.657l-.015.027.011-.01.535.486.012-.011-.016.026.01-.01.48.433.013-.012-.016.026c.054.005.186.135.253.171.084.045.173.115.261.16s.517.274.517.093v-.014c0-.035-.163-.2-.217-.204l.011-.013-.541-.492-.013.013.016-.026c-.052-.006-.317-.266-.377-.318-.054-.047-.389-.196-.451-.201-.008-.034-.069-.129-.091-.153-.044-.048-.046-.075-.069-.114-.058-.102-.123-.181-.159-.268-.066-.156-.173-.329-.239-.523-.154-.45-.241-.768-.241-1.273 0-1.385 1-1.664 2.1-1.691l.109.004h.108l.163.007.007.016-.025 1.936.002.055v1.091c.01.114-.064.27.059.392.053.052.354.34.403.344l-.015.026.011-.011.534.487.012-.011-.016.026c.124.014.177.266.299.082l.009-2.345.005-.041-.003-.068.003-.041-.003-.068.003-.041.017-.955-.003-.041.003-.068-.003-.041.008-.464.004-.055v-.055l.002-.082h.162c.037 0 .068-.031.068-.069 0-.051-.009-.025-.013-.081-.082-.007-.142-.122-.203-.163l.006-.438h.005v-2.559h1.48v-.002h.923c.098 0 .154-.112.096-.191l-.632-.866c-.061-.084-.158-.133-.261-.133h-3.936l-.163-.003h-.501l-1.625.003-11.229.017h-2.859v.027h-.027v.068c0 .041.454.46.501.464l-.015.027.011-.011.534.487.012-.011-.016.026.149.111 2.223-.001-.007 1.418.007.859h-.041c-.043 0-.244-.046-.312-.053l-.328-.04c-.187-.029-.519-.044-.62-.044h-.19c-.035-.168-.092-.338-.171-.578-.041-.122-.066-.175-.111-.283l-.11-.26-.296-.497c-.051-.083-.11-.161-.18-.229a1.04 1.04 0 0 1-.088-.105c-.034-.045-.091-.049-.074-.093l-.011.012-.75-.68-.013.013.016-.026c-.082-.01-.398-.401-.502-.41l.015-.026a1.76 1.76 0 0 1-.226-.142c-.074-.054-.159-.07-.243-.11-.097-.047-.369-.103-.453-.103h-.149l-.068.003-.324.055c-.063.038-.267.081-.359.125-.136.065-.245.128-.362.209-.214.149-.337.396-.337.725l-1.089-.975-.102-.011-.054.003c-.446.036-.875.008-1.02.008h-.718c-.265 0-.43-.005-.755-.007-.424-.002-1.044-.027-1.41 0l-.054-.002h-.434c-.07.007-.03.005-.094.029v.069c.038.055.335.349.394.355l-.016.026.011-.01.536.484.061.063-.01.01c.12.01.087.165.311.164h.474l.935.002h.488l.054.005 1.68-.005h.217l.054-.002c.092.007.561-.034.59.006.013.019.074.158.102.21l.103.183c.085.101.606.655.696.665l-.016.026.011-.011.534.487.012-.011-.015.027c.04.004.282.221.322.262.102.105.226.163.35.248.196.133.585.277.791.294a10.3 10.3 0 0 1-.573.185c-.159.037-.435.184-.613.272-.314.155-.815.581-.93.877-.153.393-.037.785.093 1.13.083.22.207.404.301.552.051.081.344.453.436.461l-.016.026.012-.011.535.484.034.034.508.46.011-.011-.015.027c.06.005.164.122.223.157.086.051.165.082.254.127.149.075.359.077.461.077.384.002.679-.305.867-.563.17-.232.311-.567.37-.887s.141-.718.141-.998v-.981l-.027-.382.04-.003.434-.026.136-.011.474.003.149.01c.049.002.008.003.044-.014l.012 2.399v.163l.003.055-.003.081.49.448.011-.01-.016.026.013-.012.534.487.011-.01-.015.027c.08.009.109.109.162.109h.068c.016-.043.027-.029.027-.082l-.007-1.895.007-1.609c.064.031.365.104.471.129.136.032.44.179.505.184l.003.068-.003.068.003.041-.003.068.003.041-.003.068.002.041.01.15v.055l-.002.055.005.327-.001.055.027.736.026.464.024.302c.012.114-.006.091.06.158.039.039.084.106.147.113l-.016.026.012-.011.534.487.012-.011-.015.026c.095.011.391.382.46.382h.068v-.027h.027l-.003-.123-.008-.15-.046-.886-.003-.15-.007-.327c-.001-.022-.014-.066-.012-.068l-.002-.055c.008-.11-.007-.345-.007-.385v-.259-.511-.511c0-.128-.017-.359.009-.678v-.055-.055l.012-.164-.004-.041.008-.381.001-.109.004-.286v-.109l.006-.3v-.054l.01-.15v-.054l-.002-.055.008-.436.004-.109-.003-.941-.03.013-.11-.108h.135l.041-.007 1.761.007c-.098.148-.149.433-.149.559v.15c0 .111.03.268.064.415.036.158.116.288.159.441a1.8 1.8 0 0 0 .234.389c.048.048.325.306.371.311l-.016.026.012-.011.535.486.011-.01-.015.026c.078.007.118.088.165.134.092.089.116.014.173-.024-.21-.441-.393-.739-.393-1.118 0-.023-.014-.06-.014-.068 0-.131.027-.394.101-.553.054-.116.237-.432.361-.443l-.015-.026c.004-.001.317-.157.362-.173a1.21 1.21 0 0 1 .342-.072h.203c.082 0 .251-.001.305.116.051.111.097.222.122.33.06.26.118.428.143.699.027.286.024.535-.025.781l-.089.381s-.074.193-.125.343c-.071.207-.256.45-.341.603-.093.169-.36.427-.5.568a4.04 4.04 0 0 1-.58.493l-.306.197-.172.1-.178.093c-.033-.045-.698-.375-.824-.438-.152-.077-.711-.338-.883-.323l-.054-.002c-.136.01-.162.05-.218.137-.024.039-.068.069-.093.108l-.067.112c-.106.169-.192.333-.192.489v.096c0 .069.105.264.204.273l-.016.026.011-.01.535.486.012-.011-.015.027c.057.006.422.364.484.426.128.129.465.18.559.172l.054-.001.122-.011c.285-.017 1.081-.157 1.495-.362l1.69 1.004-.015.026c.043.004.888.523.965.583a5.45 5.45 0 0 0 .495.269c.079.028.394.191.469.233l.995.499.984.468 1.038.482.957.427c.343.174.749.296 1.047.445.316.158.667.252 1.03.423.178.084.329.131.515.205l.505.185s.387.141.525.196.397.128.532.186.379.129.558.189l.545.174 1.011.302.505.136.28.074c.093.013.236.052.293.071.108.036.454.113.584.13.176.022.316.072.512.105l1.057.162 1.057.096h.826c.005-.004.644-.063.721-.073.113-.014.242-.04.347-.065s.263-.078.392-.097c.147-.022.532-.185.732-.285.141-.071.231-.131.362-.209.067-.04.287-.235.332-.24l-.016-.026.014.012.217-.218-.013-.013c.089-.01.335-.423.375-.48.121-.175.168-.351.269-.563.076-.158.127-.465.164-.611s.072-.572.087-.595v-.136l-.123-.122z" fill="#2e2e75"/><path d="M76.327 81.329c-.056 0-.1-.016-.132-.048s-.054-.072-.066-.12-.012-.096 0-.145.034-.088.066-.12l1.407-1.169c.379-.321.682-.61.91-.868s.389-.498.485-.723.143-.47.143-.735a3.31 3.31 0 0 0-.036-.494c-.024-.161-.072-.301-.144-.422s-.17-.219-.294-.296-.285-.114-.485-.114c-.191 0-.355.026-.491.078s-.249.116-.341.193-.158.157-.198.241a.52.52 0 0 0-.06.211.97.97 0 0 0 .006.096c.004.04.016.078.036.114s.054.068.102.096.116.042.204.042c.136 0 .225.04.269.12s.066.169.066.265-.046.185-.138.265-.218.121-.377.121c-.152 0-.276-.028-.371-.085a.69.69 0 0 1-.227-.211.76.76 0 0 1-.114-.277c-.02-.1-.03-.194-.03-.283a1.18 1.18 0 0 1 .126-.53c.084-.169.205-.315.365-.44a1.83 1.83 0 0 1 .593-.296 2.8 2.8 0 0 1 .82-.108 2.54 2.54 0 0 1 .833.126c.243.085.445.199.605.344a1.45 1.45 0 0 1 .365.512 1.57 1.57 0 0 1 .126.621c0 .313-.088.615-.264.904s-.399.56-.671.814a6.73 6.73 0 0 1-.892.699l-.928.585c-.04.016-.06.044-.06.084 0 .032.02.048.06.048h1.725a1.07 1.07 0 0 0 .27-.03.5.5 0 0 0 .203-.108.93.93 0 0 0 .18-.229c.06-.1.122-.235.186-.404.016-.032.044-.058.084-.078s.08-.028.12-.024a.21.21 0 0 1 .108.042c.032.024.048.056.048.096l-.192.79a3.14 3.14 0 0 0-.084.85h-3.916zm9.486-2.747a4.8 4.8 0 0 0-.084-.898c-.056-.293-.146-.555-.269-.783s-.283-.414-.479-.554-.437-.211-.725-.211c-.311 0-.575.07-.79.211a1.61 1.61 0 0 0-.521.56c-.132.232-.228.496-.288.79a4.54 4.54 0 0 0-.09.91 4.44 4.44 0 0 0 .084.844 2.67 2.67 0 0 0 .276.783c.127.233.295.426.503.579s.463.229.767.229.559-.072.766-.217.373-.333.497-.566.213-.496.269-.79.084-.588.084-.886zm1.21-.133c0 .49-.074.924-.222 1.302a2.7 2.7 0 0 1-.611.952c-.26.257-.571.452-.934.585s-.761.199-1.192.199c-.375 0-.726-.062-1.054-.187s-.615-.309-.862-.554-.441-.554-.581-.928-.21-.813-.21-1.32c0-.41.072-.787.216-1.133a2.58 2.58 0 0 1 .599-.886c.256-.245.557-.438.904-.579a3.02 3.02 0 0 1 1.144-.211 3.2 3.2 0 0 1 1.102.187 2.61 2.61 0 0 1 .892.536 2.46 2.46 0 0 1 .593.862c.144.342.216.733.216 1.175zm.813 2.88c-.056 0-.1-.016-.132-.048s-.054-.072-.066-.12-.012-.096 0-.145.034-.088.066-.12l1.407-1.169c.379-.321.682-.61.91-.868s.389-.498.485-.723.144-.47.144-.735a3.35 3.35 0 0 0-.036-.494c-.024-.161-.072-.301-.143-.422a.87.87 0 0 0-.294-.296c-.124-.076-.285-.114-.485-.114-.192 0-.355.026-.491.078s-.249.116-.341.193-.158.157-.198.241a.52.52 0 0 0-.06.211.97.97 0 0 0 .006.096c.004.04.016.078.036.114s.054.068.102.096.116.042.204.042c.136 0 .225.04.269.12s.066.169.066.265-.046.185-.138.265-.218.121-.377.121c-.152 0-.276-.028-.371-.085a.68.68 0 0 1-.228-.211c-.056-.084-.094-.177-.114-.277s-.03-.194-.03-.283a1.18 1.18 0 0 1 .126-.53c.084-.169.205-.315.365-.44a1.83 1.83 0 0 1 .593-.296 2.8 2.8 0 0 1 .82-.108 2.54 2.54 0 0 1 .833.126c.243.085.445.199.605.344a1.45 1.45 0 0 1 .365.512 1.57 1.57 0 0 1 .126.621c0 .313-.088.615-.263.904s-.399.56-.671.814a6.73 6.73 0 0 1-.892.699l-.928.585c-.04.016-.06.044-.06.084 0 .032.02.048.06.048h1.725a1.07 1.07 0 0 0 .27-.03.5.5 0 0 0 .203-.108.93.93 0 0 0 .18-.229 2.62 2.62 0 0 0 .186-.404c.016-.032.044-.058.084-.078s.08-.028.12-.024a.21.21 0 0 1 .108.042c.032.024.048.056.048.096l-.192.79a3.14 3.14 0 0 0-.084.85h-3.916zm7.198-1.989c.287 0 .559.048.814.145s.481.229.677.398a1.86 1.86 0 0 1 .461.597 1.69 1.69 0 0 1 .168.753c0 .474-.094.866-.281 1.175s-.423.558-.707.747a2.79 2.79 0 0 1-.922.398c-.331.077-.645.115-.94.115a3.82 3.82 0 0 1-.593-.048 2.32 2.32 0 0 1-.545-.151 1.14 1.14 0 0 1-.395-.271c-.104-.112-.156-.253-.156-.421 0-.177.052-.313.156-.41s.236-.145.395-.145a.56.56 0 0 1 .3.09c.096.06.144.154.144.283 0 .072-.016.13-.048.175s-.048.102-.048.175c0 .048.03.092.09.132s.136.074.227.102.188.05.288.066.193.024.281.024c.511 0 .896-.169 1.156-.506s.389-.816.389-1.434c0-.49-.152-.88-.455-1.169s-.826-.454-1.569-.494c-.104-.008-.154-.054-.15-.138s.042-.142.114-.175c.559-.201.968-.456 1.228-.765s.389-.705.389-1.187a3.34 3.34 0 0 0-.036-.494c-.024-.161-.072-.301-.144-.422a.86.86 0 0 0-.293-.295c-.124-.076-.286-.115-.485-.115-.192 0-.357.028-.497.085s-.254.123-.342.199-.154.157-.197.241-.066.155-.066.211a.94.94 0 0 0 .006.096.29.29 0 0 0 .036.114c.02.036.054.066.102.09s.116.036.204.036c.136 0 .228.04.275.12a.51.51 0 0 1 .072.265c0 .097-.046.185-.138.265s-.218.12-.377.12c-.152 0-.276-.028-.371-.084a.68.68 0 0 1-.228-.211.76.76 0 0 1-.114-.277 1.45 1.45 0 0 1-.03-.283 1.17 1.17 0 0 1 .126-.53c.084-.168.205-.315.365-.44a1.81 1.81 0 0 1 .593-.295c.236-.072.509-.108.82-.108s.589.042.833.126a1.73 1.73 0 0 1 .605.344 1.45 1.45 0 0 1 .365.512 1.57 1.57 0 0 1 .126.621 1.65 1.65 0 0 1-.156.723c-.104.217-.236.41-.395.579s-.339.309-.539.422-.399.197-.599.253c-.016.008-.024.024-.024.049 0 .016.012.024.036.024z" fill="#2e2e75"/></g><path d="M9.074 36.426c0 14.39 11.634 26.097 25.934 26.097a25.77 25.77 0 0 0 17.549-6.883 26.08 26.08 0 0 0 8.279-16.871l.362-4.096H34.334v6.183h19.969a20.06 20.06 0 0 1-5.905 10.233 19.66 19.66 0 0 1-13.39 5.252c-10.912 0-19.789-8.933-19.789-19.914s8.878-19.914 19.789-19.914c3.507 0 6.95.934 9.959 2.702 1.462.859 2.816 1.911 4.025 3.126l1.081 1.087 4.343-4.374-1.081-1.087c-1.58-1.589-3.354-2.965-5.271-4.092a25.79 25.79 0 0 0-13.057-3.546c-14.3 0-25.934 11.707-25.934 26.097z" fill="url(#W)"/><path d="M66.298 13.719c-1.876 1.242-3.514 2.938-4.738 4.905l-.358.574 4.556 4.589.523-1.062c.764-1.548 1.965-2.918 3.384-3.857a9.71 9.71 0 0 1 7.937-1.267c3.38.931 6.083 3.837 6.886 7.402.294 1.309.908 4.032-4.314 10.307l-6.799 7.934-.045.052-5.038 5.839-10.595 12.475h33.093v-6.164h-19.8l1.958-2.305 4.992-5.786.047-.054 6.882-8.032c2.756-3.312 4.501-6.254 5.334-8.997.901-2.962.578-5.202.257-6.629-1.296-5.757-5.708-10.462-11.243-11.985a15.81 15.81 0 0 0-4.192-.566c-3.074 0-6.114.897-8.73 2.629z" fill="url(#X)"/><path d="M109.943 60.531c7.006 5.047 14.672 2.089 14.672 2.089s-8.347-1.593-9.205-8.875c-.183-1.562-.007-3.259.382-4.96-7.343-3.046-16.546-4.443-16.546-4.443s3.692 11.141 10.697 16.189z" fill="url(#Y)"/><path d="M116.563 53.165c0 7.032 7.518 9.283 8.09 9.444.573-.161 8.09-2.412 8.09-9.444 0-7.023-7.499-16.257-8.09-16.973-.59.716-8.09 9.95-8.09 16.973z" fill="url(#Z)"/><path d="M110.065 45.724l5.993 2.015c.49-1.767 1.176-3.511 1.9-5.086-3.774-2.621-7.142-4.371-7.142-4.371s-.707 3.326-.751 7.442z" fill="url(#a)"/><path d="M91.803 53.346l-.037.006c3.024 2.105 18.867 19.404 32.887 9.285l-.038-.016s-7.295 3.453-14.858-1.113c-1.853-1.118-3.55-2.614-5.056-4.235-2.414-2.598-6.311-4.117-10.403-4.117a16.44 16.44 0 0 0-2.496.19z" fill="url(#b)"/><path d="M133.515 48.785c.389 1.702.565 3.398.381 4.96-.857 7.282-9.205 8.875-9.205 8.875s7.667 2.958 14.673-2.089 10.697-16.189 10.697-16.189-9.203 1.398-16.546 4.443z" fill="url(#c)"/><path d="M131.35 42.654c.723 1.575 1.41 3.319 1.9 5.086 1.952-.784 4.016-1.454 5.992-2.015-.044-4.117-.751-7.442-.751-7.442s-3.367 1.75-7.141 4.371z" fill="url(#d)"/><path d="M144.608 57.274c-1.507 1.621-3.204 3.117-5.057 4.235-7.563 4.566-14.858 1.113-14.858 1.113l-.038.016c14.02 10.119 29.863-7.181 32.888-9.285 0 0-.012-.002-.037-.006a16.43 16.43 0 0 0-2.496-.19c-4.092 0-7.989 1.519-10.402 4.117z" fill="url(#e)"/></g><defs><radialGradient id="B" cx="0" cy="0" r="1" gradientTransform="translate(124.758 26.3632) rotate(4.82547) scale(23.591 23.7372)" xlink:href="#g"><stop stop-color="#c0dbf1"/><stop offset=".579" stop-color="#2093cd"/><stop offset=".665" stop-color="#2093cd"/><stop offset=".922" stop-color="#0473b7"/></radialGradient><radialGradient id="C" cx="0" cy="0" r="1" gradientTransform="translate(124.757 26.3642) rotate(4.82551) scale(23.5909 23.7373)" xlink:href="#g"><stop stop-color="#c0dbf1"/><stop offset=".579" stop-color="#2093cd"/><stop offset=".665" stop-color="#2093cd"/><stop offset=".922" stop-color="#0473b7"/></radialGradient><radialGradient id="D" cx="0" cy="0" r="1" gradientTransform="translate(124.757 26.3622) rotate(4.82549) scale(23.591 23.7373)" xlink:href="#g"><stop stop-color="#c0dbf1"/><stop offset=".579" stop-color="#2093cd"/><stop offset=".665" stop-color="#2093cd"/><stop offset=".922" stop-color="#0473b7"/></radialGradient><radialGradient id="E" cx="0" cy="0" r="1" gradientTransform="translate(124.758 26.3629) rotate(4.82546) scale(23.591 23.7372)" xlink:href="#g"><stop stop-color="#c0dbf1"/><stop offset=".579" stop-color="#2093cd"/><stop offset=".665" stop-color="#2093cd"/><stop offset=".922" stop-color="#0473b7"/></radialGradient><radialGradient id="F" cx="0" cy="0" r="1" gradientTransform="translate(124.754 26.3634) rotate(4.82549) scale(23.5909 23.7372)" xlink:href="#g"><stop stop-color="#c0dbf1"/><stop offset=".579" stop-color="#2093cd"/><stop offset=".665" stop-color="#2093cd"/><stop offset=".922" stop-color="#0473b7"/></radialGradient><radialGradient id="G" cx="0" cy="0" r="1" gradientTransform="translate(124.755 26.3638) rotate(4.82551) scale(23.5908 23.7372)" xlink:href="#g"><stop stop-color="#c0dbf1"/><stop offset=".579" stop-color="#2093cd"/><stop offset=".665" stop-color="#2093cd"/><stop offset=".922" stop-color="#0473b7"/></radialGradient><radialGradient id="H" cx="0" cy="0" r="1" gradientTransform="translate(124.758 26.3629) rotate(4.82553) scale(23.591 23.7375)" xlink:href="#g"><stop stop-color="#c0dbf1"/><stop offset=".579" stop-color="#2093cd"/><stop offset=".665" stop-color="#2093cd"/><stop offset=".922" stop-color="#0473b7"/></radialGradient><radialGradient id="I" cx="0" cy="0" r="1" gradientTransform="translate(124.756 26.3635) rotate(4.82547) scale(23.591 23.7372)" xlink:href="#g"><stop stop-color="#c0dbf1"/><stop offset=".579" stop-color="#2093cd"/><stop offset=".665" stop-color="#2093cd"/><stop offset=".922" stop-color="#0473b7"/></radialGradient><radialGradient id="J" cx="0" cy="0" r="1" gradientTransform="translate(124.757 26.3632) rotate(4.82549) scale(23.5909 23.7372)" xlink:href="#g"><stop stop-color="#c0dbf1"/><stop offset=".579" stop-color="#2093cd"/><stop offset=".665" stop-color="#2093cd"/><stop offset=".922" stop-color="#0473b7"/></radialGradient><radialGradient id="K" cx="0" cy="0" r="1" gradientTransform="translate(124.756 26.3635) rotate(4.82546) scale(23.5911 23.7373)" xlink:href="#g"><stop stop-color="#c0dbf1"/><stop offset=".579" stop-color="#2093cd"/><stop offset=".665" stop-color="#2093cd"/><stop offset=".922" stop-color="#0473b7"/></radialGradient><radialGradient id="L" cx="0" cy="0" r="1" gradientTransform="translate(124.757 26.3638) rotate(4.82549) scale(23.5908 23.7371)" xlink:href="#g"><stop stop-color="#c0dbf1"/><stop offset=".579" stop-color="#2093cd"/><stop offset=".665" stop-color="#2093cd"/><stop offset=".922" stop-color="#0473b7"/></radialGradient><radialGradient id="M" cx="0" cy="0" r="1" gradientTransform="translate(124.756 26.3633) rotate(4.8255) scale(23.5908 23.7372)" xlink:href="#g"><stop stop-color="#c0dbf1"/><stop offset=".579" stop-color="#2093cd"/><stop offset=".665" stop-color="#2093cd"/><stop offset=".922" stop-color="#0473b7"/></radialGradient><radialGradient id="N" cx="0" cy="0" r="1" gradientTransform="translate(124.753 26.3629) rotate(4.82549) scale(23.5909 23.7372)" xlink:href="#g"><stop stop-color="#c0dbf1"/><stop offset=".579" stop-color="#2093cd"/><stop offset=".665" stop-color="#2093cd"/><stop offset=".922" stop-color="#0473b7"/></radialGradient><radialGradient id="O" cx="0" cy="0" r="1" gradientTransform="translate(124.044 25.4104) rotate(-2.63887) scale(20.6894 20.819)" xlink:href="#g"><stop stop-color="#c0dbf1"/><stop offset=".579" stop-color="#2093cd"/><stop offset=".665" stop-color="#2093cd"/><stop offset=".922" stop-color="#0473b7"/></radialGradient><radialGradient id="P" cx="0" cy="0" r="1" gradientTransform="translate(124.736 26.3519) rotate(4.82576) scale(23.6467 23.7947)" xlink:href="#g"><stop stop-color="#c0dbf1"/><stop offset=".579" stop-color="#2ad"/><stop offset=".665" stop-color="#2ad"/><stop offset=".922" stop-color="#0473b7"/></radialGradient><radialGradient id="Q" cx="0" cy="0" r="1" gradientTransform="translate(124.759 26.363) rotate(4.82535) scale(23.5916 23.7372)" xlink:href="#g"><stop stop-color="#c0dbf1"/><stop offset=".579" stop-color="#2ad"/><stop offset=".665" stop-color="#2ad"/><stop offset=".922" stop-color="#0473b7"/></radialGradient><radialGradient id="R" cx="0" cy="0" r="1" gradientTransform="translate(124.738 26.3471) rotate(4.82553) scale(23.6472 23.794)" xlink:href="#g"><stop stop-color="#c0dbf1"/><stop offset=".579" stop-color="#2ad"/><stop offset=".665" stop-color="#2ad"/><stop offset=".922" stop-color="#0473b7"/></radialGradient><radialGradient id="S" cx="0" cy="0" r="1" gradientTransform="translate(124.735 26.3445) rotate(4.82492) scale(23.6494 23.7934)" xlink:href="#g"><stop stop-color="#c0dbf1"/><stop offset=".579" stop-color="#2ad"/><stop offset=".665" stop-color="#2ad"/><stop offset=".922" stop-color="#0473b7"/></radialGradient><radialGradient id="T" cx="0" cy="0" r="1" gradientTransform="translate(124.756 26.3636) rotate(4.82542) scale(23.5911 23.7371)" xlink:href="#g"><stop stop-color="#c0dbf1"/><stop offset=".579" stop-color="#2ad"/><stop offset=".665" stop-color="#2ad"/><stop offset=".922" stop-color="#0473b7"/></radialGradient><radialGradient id="U" cx="0" cy="0" r="1" gradientTransform="translate(124.752 26.3639) rotate(4.8256) scale(23.5902 23.7371)" xlink:href="#g"><stop stop-color="#c0dbf1"/><stop offset=".579" stop-color="#2ad"/><stop offset=".665" stop-color="#2ad"/><stop offset=".922" stop-color="#0473b7"/></radialGradient><radialGradient id="V" cx="0" cy="0" r="1" gradientTransform="translate(124.756 26.3632) rotate(4.82559) scale(23.5903 23.7371)" xlink:href="#g"><stop stop-color="#c0dbf1"/><stop offset=".579" stop-color="#2ad"/><stop offset=".665" stop-color="#2ad"/><stop offset=".922" stop-color="#0473b7"/></radialGradient><linearGradient id="W" x1="35.084" y1="31.98" x2="35.589" y2="66.593" xlink:href="#g"><stop stop-color="#f68e2b"/><stop offset=".232" stop-color="#f68e2b"/><stop offset=".866" stop-color="#0f8141"/></linearGradient><linearGradient id="X" x1="74.065" y1="31.412" x2="74.57" y2="66.026" xlink:href="#g"><stop stop-color="#f68e2b"/><stop offset=".232" stop-color="#f68e2b"/><stop offset=".866" stop-color="#0f8141"/></linearGradient><linearGradient id="Y" x1="111.931" y1="31.73" x2="111.931" y2="73.662" xlink:href="#g"><stop stop-color="#f68e2b"/><stop offset=".232" stop-color="#f68e2b"/><stop offset=".866" stop-color="#0f8141"/></linearGradient><linearGradient id="Z" x1="124.653" y1="31.73" x2="124.653" y2="73.662" xlink:href="#g"><stop stop-color="#f68e2b"/><stop offset=".232" stop-color="#f68e2b"/><stop offset=".866" stop-color="#0f8141"/></linearGradient><linearGradient id="a" x1="114.012" y1="31.731" x2="114.012" y2="73.663" xlink:href="#g"><stop stop-color="#f68e2b"/><stop offset=".232" stop-color="#f68e2b"/><stop offset=".866" stop-color="#0f8141"/></linearGradient><linearGradient id="b" x1="108.21" y1="31.731" x2="108.21" y2="73.663" xlink:href="#g"><stop stop-color="#f68e2b"/><stop offset=".232" stop-color="#f68e2b"/><stop offset=".866" stop-color="#0f8141"/></linearGradient><linearGradient id="c" x1="137.376" y1="31.73" x2="137.376" y2="73.662" xlink:href="#g"><stop stop-color="#f68e2b"/><stop offset=".232" stop-color="#f68e2b"/><stop offset=".866" stop-color="#0f8141"/></linearGradient><linearGradient id="d" x1="135.296" y1="31.731" x2="135.296" y2="73.663" xlink:href="#g"><stop stop-color="#f68e2b"/><stop offset=".232" stop-color="#f68e2b"/><stop offset=".866" stop-color="#0f8141"/></linearGradient><linearGradient id="e" x1="141.099" y1="31.732" x2="141.099" y2="73.664" xlink:href="#g"><stop stop-color="#f68e2b"/><stop offset=".232" stop-color="#f68e2b"/><stop offset=".866" stop-color="#0f8141"/></linearGradient><clipPath id="f"><path fill="#fff" transform="translate(4.927 4)" d="M0 0h156.531v88H0z"/></clipPath><linearGradient id="g" gradientUnits="userSpaceOnUse"/></defs></svg>