<svg width="1161" height="1178" fill="none" xmlns="http://www.w3.org/2000/svg"><path d="M727.671 55.38c-12.747-3.218-19.17-4.654-32.088-7.177-12.649-2.47-22.05-2.45-27.964-.416-5.918 2.036-9.249 5.97-10.112 11.672l-2.21 14.612.034.004-1.418 9.365a567.347 567.347 0 0 1 47.937 8.58l4.196-16.809a575.073 575.073 0 0 0-13.415-2.825l1.008-4.523c.392-1.761 1.194-2.859 2.418-3.287 1.22-.426 3.454-.313 6.681.378 3.871.828 5.803 1.257 9.659 2.15 3.639.844 5.967 1.725 6.981 2.593 1.009.865 1.26 2.234.746 4.09l-8.982 32.507c-.609 2.206-1.671 3.556-3.168 4.056-1.503.501-4.109.297-7.845-.559a452.004 452.004 0 0 0-15.403-3.296l2.073-9.336c-13.692-2.721-20.59-3.868-34.44-5.728l-7.177 47.643c-.841 5.586.741 9.965 4.613 13.209 3.875 3.244 10.822 5.639 20.872 7.589 10.37 2.012 15.526 3.16 25.758 5.738 9.917 2.498 17.305 3.308 22.391 2.072 5.082-1.235 8.606-4.467 10.486-9.82l5.108-14.548c-12.415-3.942-18.695-5.711-31.353-8.847l-3.419 12.397c-.512 1.859-1.356 2.984-2.519 3.379-1.166.397-3.005.291-5.529-.297a417.147 417.147 0 0 0-8.135-1.822c-3.082-.664-5.05-1.4-5.904-2.245-.853-.847-1.078-2.209-.661-4.089l4.628-20.848c8.536 1.696 12.785 2.632 21.236 4.68 12.177 2.95 21.346 4.213 27.777 3.305 6.424-.905 10.671-4.056 12.633-9.636l13.255-37.683c1.921-5.465.795-10.404-3.533-14.734-4.332-4.335-12.732-8.341-25.215-11.493zM1077.57 437.964c-3.65-13.818-5.69-20.563-10.15-33.728l19.71-7.534c4.63 13.694 6.75 20.711 10.55 35.083l-20.11 6.179zm-61.99-53.588c-1.76.832-3.19.801-4.3-.074-1.11-.876-2.35-2.861-3.74-5.921a373.25 373.25 0 0 0-5.64-11.915c-1.47-2.992-2.238-5.23-2.268-6.752-.03-1.525.808-2.76 2.508-3.705l18.86-10.456c1.6-.887 3-.909 4.19-.055 1.18.854 2.59 2.856 4.16 6.04 4.18 8.476 6.17 12.798 9.98 21.612l-23.75 11.226zm143.75 170.79c-.85-17.523-3.34-29.548-6.69-36.436-3.36-6.896-7.9-9.797-13.5-8.981l-11.24 1.64c-.45-3.898-.94-7.79-1.48-11.676a508.914 508.914 0 0 0-2.39-16.019c-13.04-73.281-37.1-140.717-76.13-204.202a432.555 432.555 0 0 0-6.53-9.992c-36.92-52.964-80.894-96.984-133.563-134.3a439.64 439.64 0 0 0-12.718-8.441c-39.356-24.405-80.222-43.792-123.903-59.185l-5.223 14.097c28.125 9.897 55.052 21.372 81.647 34.881l-32.262 56.646c-1.021 1.794-2.266 2.714-3.725 2.772-1.463.057-3.548-.619-6.275-1.995a379.668 379.668 0 0 0-9.261-4.549c-2.76-1.319-4.475-2.48-5.129-3.514-.656-1.036-.531-2.474.388-4.32l14.674-29.445c.863-1.733 1.962-2.664 3.3-2.781 1.335-.116 3.523.525 6.532 1.962a436.781 436.781 0 0 1 6.743 3.282l7.061-13.142c-6.797-3.369-10.226-4.993-17.141-8.117-11.135-5.031-19.819-7.069-25.724-6.541-5.912.528-9.919 3.492-12.097 8.738l-14.603 35.174c-5.849 13.501 8.427 23.485 19.223 27.553 6.28 2.819 9.394 4.288 15.562 7.34 4.975 2.463 8.796 3.579 11.552 3.248l-8.201 14.398c10.755 5.674 16.039 8.698 26.375 15.123l55.267-83.333a419.774 419.774 0 0 1 6.666 4.215 426.189 426.189 0 0 1 12.374 8.212 635.19 635.19 0 0 1 55.422 43.988l-44.983 47.715c-1.425 1.512-2.856 2.104-4.284 1.794-1.433-.312-3.292-1.504-5.604-3.544a356.7 356.7 0 0 0-7.667-6.602c-2.358-1.982-3.776-3.576-4.237-4.817-.461-1.241-.031-2.655 1.308-4.243l21.939-26.024c1.178-1.4 2.473-1.963 3.881-1.679 1.407.284 3.415 1.49 5.989 3.655a391.605 391.605 0 0 1 5.756 4.92l9.544-10.626c-5.778-5.02-8.713-7.468-14.668-12.243-9.588-7.686-17.528-11.785-23.39-12.693-5.867-.908-10.475 1.035-13.859 5.652l-22.681 30.948c-8.92 11.789 2.464 25.012 12.001 31.698 5.413 4.316 8.079 6.532 13.324 11.083 4.087 3.545 7.415 5.591 10.083 6.049l-11.308 11.996c9.138 8.384 13.566 12.767 22.093 21.918l49.416-45.639c1.525-1.409 3.045-1.884 4.571-1.408 1.518.476 3.434 1.968 5.709 4.508a376.716 376.716 0 0 1 7.365 8.437c2.216 2.602 3.428 4.598 3.66 5.932.231 1.331-.459 2.666-2.06 3.987l-26.294 21.7c-1.51 1.245-2.868 1.66-4.07 1.257-1.208-.405-2.806-1.814-4.836-4.196a347.221 347.221 0 0 0-4.606-5.317l-10.738 9.441c4.432 5.03 6.603 7.598 10.85 12.838 6.837 8.44 12.508 13.944 17.449 16.214 4.939 2.271 9.739 1.838 14.413-1.496l31.324-22.332c5.169-3.685 7.409-8.645 6.549-14.868-.87-6.228-4.78-14.053-11.986-22.992-5.152-6.397-7.791-9.528-13.182-15.654-4.346-4.94-7.899-7.772-10.518-8.611l10.772-9.949a612.525 612.525 0 0 1 47.524 59.892c2.16 3.21 4.28 6.451 6.36 9.722 14.22 22.112 26.49 45.619 36.9 69.749l-19.13 9.043c-5.4-12.527-8.3-18.623-14.43-30.484-5.95-11.498-11.73-18.698-16.78-21.953-5.05-3.257-10.01-3.221-14.83-.111l-22.448 14.495c-5.434 3.508-7.928 8.302-7.672 14.362.258 6.058 3.432 14.339 9.087 25.446 4.813 9.454 7.095 14.301 11.387 24.23 4.956 11.471 9.436 19.516 14.016 23.819 4.57 4.301 9.82 5.436 15.83 3.141l26.16-10.001c4.32 12.787 6.3 19.339 9.85 32.759l-60.51 18.587c3.65 13.808 5.24 20.906 7.9 35.48l96.78-21.265c.7 3.797 1.36 7.601 1.97 11.413.85 5.184 1.63 10.381 2.32 15.588.64 4.679.94 7.032 1.49 11.771l-97.83 14.191a485.746 485.746 0 0 1 3.07 38.674l98.52-5.558c.51 11.664.64 17.578.65 29.575l14.94-.024c-.01-12.329-.15-18.407-.67-30.393l8.99-.508c1.8-.101 3.03.651 3.7 2.279.66 1.62 1.09 4.852 1.22 9.725.21 7.852.26 11.812.26 19.804h14.22c0-14.86-.18-22.17-.87-36.557zM109.493 491.146c2.005.431 3.225 1.469 3.673 3.103.448 1.638.337 4.393-.281 8.316a445.98 445.98 0 0 0-1.78 12.214c-.503 3.755-1.138 6.251-1.946 7.455-.809 1.205-2.222 1.671-4.248 1.379l-64.097-9.248c1.744-15.038 2.83-22.404 5.404-36.832l63.275 13.613zM90.821 338.02l-13.438-7.012c-4.343 8.988-6.422 13.568-10.385 22.898l-17.848-8.322c-16.525-5.822-25.625 17.706-29.65 29.524a812.267 812.267 0 0 0-16.307 56.228c-2.219 12.441-9.019 39.014 8.25 44.791l12.04 2.462a915.741 915.741 0 0 1 9.41-45.216l-8.007-2.329c-2.437-.71-3.808-1.962-4.1-3.756-.293-1.796.299-5.626 1.878-11.384a480.32 480.32 0 0 1 4.852-16.715c1.65-5.384 3.113-8.671 4.292-9.933 1.177-1.262 2.96-1.436 5.342-.54l14.636 5.504a455.66 455.66 0 0 0-3.299 10.268 463.794 463.794 0 0 0-4.405 14.924c-15.045 56.725-21.857 113.673-22.576 172.311h14.942c0-12.008.125-17.928.618-29.602l66.524 3.648c16.195-.232 19.968-22.919 20.676-35.15.928-8.593 1.475-12.832 2.724-21.192 1.008-6.74 1.059-11.528 0-14.517l16.084 3.461c2.585-14.488 4.132-21.542 7.693-35.277l-95.14-28.712c.89-3.456 1.82-6.901 2.788-10.336a451.86 451.86 0 0 1 4.287-14.522c1.03-3.344 2.1-6.674 3.21-9.992l93.263 35.07c4.388-13.21 6.818-19.625 12.102-32.069l-90.562-42.231c3.855-9.08 5.88-13.536 10.106-22.282zM315.631 135.544l-10.501-18.329c11.276-5.987 17.008-8.811 28.619-14.119l9.396 18.875c-11.164 5.103-16.673 7.817-27.514 13.573zm-7.52 56.673c-.605 1.174-2.209 2.584-4.789 4.266a374.55 374.55 0 0 0-10.082 6.764c-2.538 1.753-4.508 2.74-5.932 2.934-1.425.195-2.728-.481-3.905-2.036l-13.024-17.193c-1.103-1.456-1.36-2.812-.761-4.061.598-1.248 2.238-2.83 4.942-4.699 7.194-4.976 10.846-7.38 18.247-12.016l14.595 21.855c1.081 1.618 1.313 3.016.709 4.186zm81.384-111.035-5.182-14.11c-66.058 23.054-125.321 55.398-179.55 99.66a420.961 420.961 0 0 0-10.304 8.943c-37.732 34.82-69.265 73.061-96.306 116.704l12.878 8.05c4.854-8.153 7.366-12.146 12.552-19.966l68.999 47.366c4.732 3.249 9.497 3.647 14.313 1.387 4.815-2.259 10.255-7.703 16.739-16.042 9.008-11.585 13.753-17.121 23.656-27.678 7.128-7.6 11.494-13.672 12.87-18.695 1.375-5.018.17-9.612-3.777-13.781l-14.733-15.564c-9.895 9.119-14.688 13.885-23.918 23.835l13.896 12.781c1.439 1.324 2.083 2.561 1.938 3.709-.147 1.151-1.111 2.695-2.879 4.666-4.925 5.49-7.333 8.3-12.035 14.048-1.93 2.36-3.469 3.754-4.644 4.157-1.176.404-2.53.003-4.06-1.216l-63.514-50.579a437.622 437.622 0 0 1 25.888-30.245l21.83 20.128c1.438 1.325 1.984 2.621 1.652 3.88-.333 1.264-1.638 3.127-3.881 5.629a377.662 377.662 0 0 0-8.093 9.288l11.592 9.854c5.88-6.936 8.9-10.315 15.085-16.892 7.943-8.443 12.92-15.087 14.667-20.454 1.745-5.362.729-10.124-3.212-14.298l-22.636-23.972c1.792-1.653 3.6-3.29 5.422-4.91a409.937 409.937 0 0 1 10.026-8.702 643.205 643.205 0 0 1 57.865-42.187l11.757 17.604c-10.52 6.59-15.684 10.051-25.789 17.306-9.795 7.033-15.737 13.462-18.037 18.746-2.303 5.291-1.496 10.117 2.248 14.46l17.449 20.241c4.225 4.9 9.227 6.784 14.973 5.854 5.744-.93 13.134-4.942 22.584-11.643 8.046-5.705 12.148-8.44 20.488-13.672 9.633-6.043 16.021-11.257 19.005-16.167 2.983-4.906 2.968-10.129-.232-15.713l-13.941-24.333c10.529-5.591 15.881-8.227 26.724-13.184l28.269 56.786c11.156-5.1 16.83-7.458 28.315-11.793l-38.067-91.797c8.38-3.163 12.604-4.66 21.11-7.49zM646.918 40.165c-46.843-4.679-93.004-4.679-139.845 0a513.789 513.789 0 0 0-13.493 1.674c-3.143.42-6.283.87-9.418 1.348l-2.588-15.285c-.421-2.49.003-4.195 1.279-5.112 1.276-.917 4.361-1.74 9.261-2.39a790.176 790.176 0 0 1 81.703-5.578c4.947-.024 8.181.37 9.704 1.105 1.518.735 2.256 2.367 2.217 4.887-.049 3.312-.076 4.968-.126 8.279 12.949.134 25.986.713 38.895 1.728l1.034-12.202C625.754 2.163 603.617.25 591.495.033c-40.099-.364-79.458 2.31-119.134 8.14-11.452 1.19-33.686 7.333-30.852 23.052l4.582 18.953c-9.023 1.955-13.515 3.017-22.448 5.315l4.124 14.422c8.693-2.236 13.065-3.27 21.845-5.173l23.245 96.164c12.032-2.607 18.099-3.719 30.287-5.56l-16.486-97.405c3.662-.554 5.495-.816 9.164-1.312 5.244-.71 7.871-1.036 13.132-1.63a773.077 773.077 0 0 1 75.987-3.773l-.947 64.434c-.03 2.042-.681 3.412-1.94 4.119-1.261.708-3.428 1.049-6.501 1.057a443.46 443.46 0 0 0-10.381.13c-3.078.069-5.156-.194-6.236-.815-1.083-.623-1.672-1.949-1.758-3.991l-1.356-32.554c-.08-1.916.436-3.228 1.563-3.928 1.121-.697 3.365-1.105 6.72-1.18 3.017-.067 4.527-.09 7.545-.119l-.154-14.76c-7.634.07-11.45.168-19.076.484-12.28.508-20.954 2.543-25.92 5.62-4.971 3.079-7.074 7.47-6.446 13.078l4.206 37.591c1.516 14.607 18.754 17.062 30.402 15.868 6.919-.301 10.382-.393 17.307-.461 5.584-.055 9.495-.789 11.763-2.321l-.24 16.378c12.231.16 18.35.428 30.546 1.342l8.268-98.332c9.109.681 13.659 1.108 22.731 2.133l1.881-14.834zM84.887 794.756l23.854-8.576c-2.536-7.555-3.743-11.388-6.026-19.163-.304 1.275-1.148 2.135-2.54 2.578l-14.97 4.758c-2.942.936-5.307.535-7.09-1.237 2.555 8.789 3.911 13.117 6.772 21.64zm43.176 18.909-7.829 3.422a424.463 424.463 0 0 1-5.351-13.632l-62.92 25.297c-2.914-7.752-4.313-11.681-6.986-19.648l31.882-11.461c-6.413-19.896-11.893-39.86-16.606-60.231L38.8 742.355c-1.423.328-2.247 1.02-2.47 2.072-.222 1.053-.036 2.93.586 5.617a501.983 501.983 0 0 0 2.137 8.953c.655 2.656 1.316 4.344 1.965 5.082.647.733 1.678.906 3.087.52l13.26-3.643c2.093 8.107 3.203 12.108 5.542 20.007l-14.51 4.598c-3.328 1.056-6.304.18-8.901-2.696-2.6-2.878-4.951-8.056-6.895-15.612-2.212-8.593-3.252-12.946-5.192-21.765-1.705-7.752-1.997-13.687-1.021-17.621.978-3.939 3.204-6.222 6.629-6.867l43.733-8.236c1.479 8.07 2.281 12.053 4.007 19.925l-12.207 2.812a487.154 487.154 0 0 0 3.353 14.434c.684 2.784 1.395 4.58 2.107 5.397.71.816 1.85 1.007 3.416.576l16.893-4.657c1.564-.432 2.464-1.164 2.703-2.192.237-1.032.02-2.86-.63-5.51a784.188 784.188 0 0 1-9.505-47.253l8.407-1.33c7.008 40.877 17.575 80.095 32.769 118.699z" fill="#242659"/><path d="m188.941 957.838 11.413-10.064c-5.151-5.917-7.672-8.942-12.603-15.126l-11.8 9.6c5.082 6.374 7.682 9.492 12.99 15.59zm-46.035-12.321 15.631-11.859a402.64 402.64 0 0 1-8.626-12.061c-1.354-1.957-2.413-3.119-3.189-3.464-.779-.347-1.769-.101-2.975.741l-13.165 9.19c-1.207.842-1.78 1.746-1.715 2.714.064.97.758 2.427 2.096 4.362a423.201 423.201 0 0 0 5.368 7.604c1.447 2.01 2.604 3.202 3.45 3.594.844.392 1.886.118 3.125-.821zm4.551-72.425-13.035 7.776a610.69 610.69 0 0 0 30.953 47.602l12.115-9.19c-10.971-14.732-20.897-30.262-30.033-46.188zm-46.336 5.452 17.15-9.424a420.239 420.239 0 0 1-6.942-13.835c-1.082-2.241-1.991-3.645-2.747-4.2-.756-.553-1.789-.508-3.103.144l-14.338 7.115c-1.388.688-2.099 1.526-2.13 2.51-.029.986.511 2.66 1.64 5.003a443.148 443.148 0 0 0 4.308 8.716c1.167 2.307 2.155 3.725 2.942 4.272.786.545 1.861.445 3.22-.301zm125.618 84.998-6.092 6.059a378.912 378.912 0 0 1-9.168-9.508l-49.65 46.817c-5.147-5.5-7.679-8.297-12.652-14.012l33.321-29.378c-5.399-6.202-8.041-9.371-13.208-15.852l-16.273 13.238c-2.983 2.427-6.123 2.96-9.418 1.534-3.296-1.427-7.078-4.904-11.208-10.522-4.41-6.001-6.57-9.054-10.794-15.266-3.956-5.818-6.042-10.651-6.355-14.332-.313-3.684 1.167-6.568 4.387-8.659l16.026-10.407c.683-.444 1.232-.722 1.647-.83-4.211-6.746-6.26-10.179-10.239-17.167l-17.974 10.721c-3.295 1.967-6.49 1.976-9.572-.041-3.084-2.017-6.375-6.211-9.719-12.665-3.572-6.895-5.305-10.394-8.664-17.499-3.145-6.653-4.565-11.987-4.377-15.824.188-3.841 2.05-6.545 5.536-8.127l17.346-7.866c3.186-1.445 6.158-1.096 8.927.976 2.768 2.072 5.481 6.106 8.271 12.033 3.452 7.332 5.241 10.939 8.937 18.032l13.292-7.304a665.846 665.846 0 0 1-20.352-44.361l7.856-3.356c24.149 57.768 56.723 108.438 100.169 153.566z" fill="#242659"/><path d="m254.831 989.522-5.597 6.516a380.022 380.022 0 0 1-9.834-8.591l-45.814 50.573c-5.47-4.92-8.167-7.43-13.483-12.56l47.443-49.058a376.655 376.655 0 0 1-9.34-9.281l6.134-6.015a449.167 449.167 0 0 0 30.491 28.416z" fill="#242659"/><path d="m251.794 1056.81 16.978-23.14a386.758 386.758 0 0 1-8.56-6.27c-1.692-1.27-2.966-1.96-3.834-2.06-.87-.1-1.76.43-2.667 1.59l-15.504 19.8c-.959 1.22-1.263 2.25-.911 3.09.354.83 1.476 1.98 3.379 3.4 1.712 1.28 2.571 1.92 4.295 3.19 1.809 1.32 3.186 2.01 4.12 2.08.932.07 1.833-.5 2.704-1.68zm82.442-13.14-4.2 7.47a400.253 400.253 0 0 1-11.223-6.25l-34.903 58.47c-6.339-3.65-9.48-5.52-15.702-9.38l27.27-42.49a423.39 423.39 0 0 1-12.79-8.21l-16.964 24.78c-2.124 3.1-4.976 4.53-8.565 4.22-3.595-.32-8.167-2.38-13.601-6.29a426.487 426.487 0 0 1-11.955-8.87c-5.336-4.07-8.616-7.84-9.892-11.14-1.277-3.3-.68-6.39 1.736-9.28l18.117-21.64c2.311-2.76 5.056-3.9 8.23-3.49 3.169.41 7.036 2.45 11.696 6.02a644.48 644.48 0 0 0 38.621 26.68l4.897-7.63a566.783 566.783 0 0 1-58.39-42.839l5.642-6.478c25.728 21.477 52.723 39.997 81.976 56.347zM332.449 1128.12l6.426-13.59c7.256 3.26 10.913 4.83 18.278 7.82l-5.922 13.81c-7.568-3.08-11.326-4.68-18.782-8.04zM480.232 1128.88l4.528-24.91a432.834 432.834 0 0 1-16.756-3.13c.788.83 1.033 1.95.726 3.38l-3.297 15.36c-.648 3.02-2.008 4.94-4.099 5.75 7.534 1.55 11.315 2.26 18.898 3.55zm33.864-29.36-1.035 8.45c-5.081-.58-7.619-.9-12.684-1.6l-9.959 66.92a506.882 506.882 0 0 1-17.762-2.74l6.052-33.29c-17.154-2.85-34.159-6.67-50.961-11.13l-6.074 21.21c-.402 1.41-.28 2.43.364 3.06.646.64 2.059 1.25 4.244 1.81 2.928.75 4.395 1.12 7.332 1.84 2.191.53 3.699.66 4.519.39.816-.26 1.403-1.11 1.757-2.53l3.335-13.35a466.46 466.46 0 0 0 16.949 3.68l-3.207 14.88c-.736 3.41-2.718 5.67-5.974 6.73-3.259 1.06-8.068.91-14.36-.56a475.138 475.138 0 0 1-17.823-4.48c-6.242-1.67-10.529-3.8-12.846-6.26-2.319-2.46-2.919-5.37-1.848-8.7l13.67-42.49a431.48 431.48 0 0 0 15.766 4.5l-3.455 12.07c3.904 1.06 7.822 2.06 11.753 3.01 2.295.56 3.901.69 4.807.41.904-.29 1.552-1.22 1.945-2.8l4.236-17.03c.392-1.57.271-2.68-.36-3.33-.632-.65-2.041-1.23-4.224-1.77a505.414 505.414 0 0 1-37.388-10.66l2.802-8.07c32.963 10.31 66.173 17.49 100.429 21.83z" fill="#242659"/><path d="m551.32 1102.41-.379 8.5c-4.259-.17-8.516-.4-12.768-.68l-4.765 67.44c-7.175-.47-10.759-.76-17.916-1.45l6.928-67.27c-4.244-.39-8.481-.85-12.711-1.37l1.092-8.44a528.037 528.037 0 0 0 40.519 3.27z" fill="#242659"/><path d="m627.229 1123.72-1.618-14.99c-7.42.74-11.138 1.05-18.581 1.53l1.048 15.04c7.671-.49 11.503-.81 19.151-1.58zm-34.568 30.34-.72-19.44c-5.58.19-8.372.26-13.955.31-2.233.02-3.721.24-4.465.69-.745.45-1.119 1.4-1.12 2.86l-.015 15.92c-.001 1.54.387 2.54 1.163 2.98.777.45 2.335.67 4.667.65 3.501-.04 5.25-.07 8.749-.15 2.333-.06 3.881-.33 4.641-.8.76-.47 1.112-1.48 1.055-3.02zm60.074-57.38 1.407 8.4a437.13 437.13 0 0 1-12.479 1.79l9.455 66.98c-6.072.82-12.159 1.52-18.257 2.12l-4.72-43.78c-7.776.78-11.672 1.1-19.472 1.6l1.444 20.75c.265 3.8-1.035 6.65-3.939 8.52-2.907 1.87-7.668 2.98-14.248 3.19-5.856.21-11.716.31-17.576.31-6.585.02-11.384-.93-14.356-2.69-2.974-1.77-4.378-4.57-4.257-8.38l.605-18.96c.112-3.48 1.555-6.03 4.294-7.67 2.737-1.65 7.016-2.41 12.873-2.42 7.248-.01 10.873-.07 18.117-.32l-.559-15.07c-14.496.5-29.008.4-43.497-.29l.438-8.5c35.219 1.23 69.846-.6 104.727-5.58zM778.708 1118.53l-17.414-42.23a433.96 433.96 0 0 1-15.659 5.81c1.401.37 2.408 1.34 3.012 2.94l5.647 14.96c2.5 6.63-1.614 11.95-12.504 15.44-1.867.59-2.802.89-4.674 1.47l4.932 14.94c.484 1.47 1.139 2.31 1.963 2.52.821.21 2.357-.03 4.591-.75 10.273-3.31 15.373-5.08 25.478-8.89 2.44-.91 3.976-1.81 4.611-2.67.633-.85.639-2.04.017-3.54zm5.386-61.19 3.717 7.71a416.78 416.78 0 0 1-11.708 5.19l27.923 61.95c-5.57 2.4-11.185 4.7-16.843 6.89l-4.145-10.05c-1.014 1.36-3.006 2.61-5.982 3.73a512.956 512.956 0 0 1-30.048 10.33c-5.94 1.86-10.841 2.4-14.629 1.7-.521 1.92-2.949 3.51-7.293 4.68a524.008 524.008 0 0 1-33.409 7.93c-12.444 2.57-19.382-.01-20.695-7.11l-4.336-23.46c7.48-1.29 11.209-2 18.639-3.55 2.185-.45 3.589-.99 4.214-1.58.626-.59.78-1.56.464-2.9l-3.92-16.72c-.334-1.43-.9-2.28-1.694-2.56-.795-.29-2.232-.2-4.315.23l-.868.18c-2.084.43-3.428.92-4.032 1.5-.604.57-.759 1.57-.459 3l1.076 5.13c-3.541.7-7.09 1.36-10.648 1.97l-1.3-6.94c-1.256-6.7 3.167-10.85 13.18-12.91 2.527-.52 3.788-.79 6.307-1.34 10.213-2.24 16.152-.3 17.924 6.29l5.317 19.77c1.835 6.82-2.853 11.74-14.185 14.22-2.463.54-4.93 1.06-7.401 1.56l2.964 13.56c.312 1.43.87 2.31 1.676 2.64.804.33 2.358.26 4.652-.23 10.242-2.2 15.341-3.41 25.473-6.08 2.519-.66 4.137-1.4 4.857-2.19.719-.78.848-1.96.388-3.52l-6.742-22.92a425.92 425.92 0 0 0 16.01-4.69c2.007-.62 3.292-1.26 3.853-1.91.563-.65.619-1.63.172-2.94l-4.61-13.51c-.579-1.69-1.339-2.62-2.27-2.79-.934-.18-3.036.26-6.32 1.26-4.299 1.33-8.62 2.58-12.959 3.76l-2.41-8.18c25.559-7.4 50.088-16.32 74.415-27.1z" fill="#242659"/><path d="M779.274 1048.92c-1.973.91-3.953 1.8-5.94 2.67-1.882.83-3.031 1.55-3.439 2.16-.407.62-.313 1.6.289 2.94l3.57 7.91a405.91 405.91 0 0 1-14.624 5.98l-3.868-9.37c-1.336-3.23-1.179-6.07.422-8.5 1.603-2.44 4.882-4.66 9.831-6.78 3.408-1.45 6.794-2.95 10.159-4.5l3.6 7.49zM852.983 1108.33l-7.486-13.07c6.991-3.84 10.452-5.83 17.304-9.94l7.96 12.79c-7.04 4.23-10.597 6.27-17.778 10.22zM941.697 989.102l-18.029-18.076c-4.972 4.964-7.499 7.391-12.629 12.135 1.158-.178 2.241.265 3.246 1.341l10.814 11.565c2.125 2.272 2.91 4.503 2.336 6.703 5.801-5.336 8.654-8.069 14.262-13.668zm-4.194-45.366 6.417 5.71a378.904 378.904 0 0 1-8.909 9.842l49.754 46.702c-5.078 5.45-7.66 8.12-12.901 13.35l-24.099-24.155c-12.542 12.615-25.918 24.415-39.761 35.585l14.025 17.22c.931 1.14 1.855 1.63 2.767 1.47.915-.16 2.264-.96 4.041-2.41 1.987-1.63 3.96-3.27 5.918-4.93 1.756-1.48 2.762-2.65 3.032-3.47.266-.83-.084-1.79-1.054-2.9l-9.125-10.45c5.357-4.63 8.001-7 13.213-11.84l10.471 11.22c2.401 2.57 3.093 5.51 2.027 8.81-1.068 3.3-4.072 7.18-9.064 11.49-5.68 4.9-8.559 7.3-14.388 11.98-5.124 4.11-9.462 6.34-12.894 6.79-3.433.45-6.209-.75-8.34-3.55l-27.201-35.71c4.46-3.3 8.85-6.7 13.167-10.18l7.981 9.8c3.22-2.57 6.4-5.19 9.54-7.85 1.84-1.55 2.909-2.8 3.212-3.7.301-.91-.088-1.98-1.167-3.22l-11.637-13.294c-1.077-1.231-2.077-1.773-2.995-1.629-.92.144-2.246.962-3.997 2.441A461.243 461.243 0 0 1 864.321 1021l-5.041-6.95c28.632-20.881 54.429-44.06 78.223-70.314z" fill="#242659"/><path d="m1003.53 894.052-12.802-8.168c-4.21 6.881-6.378 10.256-10.831 16.874l12.472 8.684c4.589-6.821 6.824-10.298 11.161-17.39zm1.36 48.66-15.709-11.756a401.027 401.027 0 0 1-8.861 11.789c-1.443 1.859-2.239 3.225-2.375 4.123-.137.897.364 1.808 1.507 2.737l12.473 10.132c1.207.98 2.24 1.293 3.095.936.856-.357 2.046-1.497 3.553-3.439a465.917 465.917 0 0 0 5.597-7.346c1.47-1.978 2.27-3.444 2.4-4.378.12-.933-.44-1.868-1.68-2.798zm-6.169-88.288 7.499 4.137c-2.13 4.094-4.33 8.15-6.604 12.167l58.624 34.538c-3.93 7.008-5.95 10.456-10.1 17.239l-37.38-23.843c-4.41 7.211-6.68 10.747-11.351 17.683l17.201 11.976c3.15 2.195 4.54 5.115 4.12 8.757-.42 3.646-2.65 8.367-6.77 13.996-4.4 6.014-6.64 8.968-11.22 14.771-4.294 5.436-8.174 8.753-11.504 10.053-3.334 1.3-6.45.656-9.356-1.864l-14.462-12.541c-2.657-2.304-3.708-5.095-3.201-8.369.505-3.274 2.704-7.254 6.525-12.08 4.73-5.972 7.046-9.019 11.568-15.232l-12.173-9.112c-9.139 12.205-18.503 24.134-28.666 35.51l-6.376-5.757c24.71-28.532 45.598-58.884 63.626-92.029z" fill="#242659"/><path d="m1057.93 905.336 7.48 4.413a439.036 439.036 0 0 1-5.8 10.064c-1.51 2.556-2.3 4.288-2.34 5.227-.04.934.63 1.842 2.01 2.718l3.1 1.967c1.38.875 2.48 1.077 3.28.609.81-.47 2-1.998 3.54-4.604 4.2-7.117 6.25-10.734 10.23-18.084l7.54 4.298c-5.41 10-8.22 14.893-14.04 24.47-7.16 11.774-14.04 15.298-20.11 11.147l-5.56-3.804c-6.01-4.104-5.34-11.484 1.47-22.688 3.77-6.2 5.61-9.347 9.2-15.733zM1020.43 725.145c2.62-11.637 7.04-17.013 13.8-15.692l8.12 1.584c-1.45 7.615-2.23 11.376-3.9 18.803l-6.03-1.433c-1.58-.375-2.7-.211-3.36.482-.65.695-1.29 2.386-1.92 5.054-7.26 28.692-16.3 56.156-27.74 83.452-1.019 2.334-1.472 3.94-1.343 4.845.128.905.926 1.711 2.393 2.416l10.35 4.971c1.96-4.308 3.85-8.65 5.66-13.024l7.81 3.472a401.347 401.347 0 0 1-5.76 13.253l61.22 29.4c-3.36 7.449-5.1 11.12-8.7 18.349l-60.17-31.616a394.612 394.612 0 0 1-6.47 12.559l-7.467-4.198a377.148 377.148 0 0 0 6.357-12.342l-12.009-6.312c-6.132-3.221-6.719-9.599-2.206-19.565 13.365-30.715 23.575-61.884 31.365-94.458z" fill="#242659"/><path d="m1087.01 814.203 4.33 1.641c1.45.548 2.52.499 3.22-.149.7-.647 1.52-2.295 2.43-4.956 5.5-16.279 10.43-32.778 14.52-49.471l8.24 2.171a784.57 784.57 0 0 1-16.53 55.386c-4.72 13.415-10.57 18.508-16.94 15.835l-7.54-3.163c-3.23-1.352-3.94-4.801-2.27-10.429l-.23-.091c-2.43 5.323-5.34 7.234-8.64 5.85l-7.99-3.351c-6.3-2.643-7.02-9.833-2.72-22.076a464.1 464.1 0 0 0 4.58-13.604l8.06 2.78c-.97 3.024-1.96 6.037-2.99 9.04-.86 2.507-1.22 4.211-1.07 5.128.15.92.91 1.637 2.28 2.156l4.56 1.729c1.36.518 2.39.47 3.09-.149.68-.617 1.48-2.203 2.36-4.765 1.25-3.675 1.86-5.524 3.06-9.247l8.18 2.82a513.959 513.959 0 0 1-3.12 9.395c-.88 2.605-1.27 4.372-1.13 5.318.14.951.89 1.683 2.26 2.202zm-11.15-98.499a532.862 532.862 0 0 1-7.36 33.997c-.65 2.611-.88 4.398-.67 5.379.21.983 1.05 1.683 2.54 2.093l22.05 6.11c1.4.389 2.43.226 3.08-.491.64-.717 1.32-2.452 2.01-5.213.84-3.407 1.26-5.119 2.06-8.562.65-2.79.83-4.802.56-6.016-.27-1.209-1.16-1.99-2.66-2.337l-10.31-2.385c1.81-8.223 2.65-12.386 4.2-20.816l36.8 6.964c-1.66 9.029-2.57 13.488-4.5 22.294l-15.29-3.536c.41 1.93.15 4.96-.81 9.048-1 4.305-2.06 8.596-3.17 12.874-2 7.745-4.4 13.057-7.03 16.022-2.63 2.97-5.77 3.831-9.41 2.67l-24.71-7.89c-3.4-1.086-5.44-3.378-6.16-6.866-.73-3.484-.15-8.544 1.62-15.331 2-7.72 2.95-11.631 4.71-19.553l-11.25-2.634c-7.47 31.666-17.09 62.164-29.46 92.26l-7.78-3.537c16.7-40.617 28.12-82.011 35.52-125.284l8.41 1.332a515.805 515.805 0 0 1-2.69 15.632l19.7 3.776z" fill="#242659"/><path d="M298.386 775.536c24.878 3.7 48.987 7.235 73.082 10.883 22.988 3.481 45.949 7.16 68.951 10.548 3.824.564 6.668 2.098 9.112 5.057 23.711 28.703 47.383 57.442 71.31 85.957 4.008 4.776 2.288 6.565-2.061 9.035-27.4 15.553-54.767 31.17-81.981 47.061-4.952 2.891-7.415 1.196-10.514-2.684-37.842-47.383-75.808-94.661-113.738-141.969a4725.826 4725.826 0 0 1-15.733-19.696c-.828-1.043-1.899-2.38-.788-3.611.596-.658 2.036-.514 2.36-.581z" fill="#F58614"/><path d="M695.151 775.539c-5.064 2.644-10.562 2.052-15.67 2.634-59.347 6.783-118.727 13.256-178.093 19.854-10.004 1.11-19.992 2.376-29.976 3.664-3.801.489-6.816-.204-9.504-3.478-22.935-27.921-46.013-55.716-69.012-83.581-1.097-1.329-3.368-2.712-2.36-4.525 1.248-2.243 3.607-.651 5.463-.252 97.665 20.974 195.33 41.954 292.972 63.038 1.967.426 4.535-.109 6.18 2.646zM707.175 788.095c-6.333 5.441-12.353 8.012-17.944 11.226-48.97 28.148-98.049 56.1-146.973 84.331-4.802 2.77-7.576 2.626-11.234-1.896-16.562-20.475-33.498-40.632-50.256-60.939-1.544-1.872-4.411-3.726-3.488-6.226.917-2.487 4.197-1.995 6.602-2.267 39.751-4.488 79.503-8.972 119.253-13.459 33.09-3.733 66.179-7.473 99.271-11.174 1.044-.118 2.131.165 4.769.404z" fill="#2EA446"/><path d="M671.271 423.214c1.536-3.097 4.226-3.168 6.411-3.977 27.743-10.269 55.534-20.4 83.236-30.783 4.362-1.634 7.864-1.642 11.877 1.083 16.024 10.884 32.248 21.456 48.364 32.199 1.401.933 3.844 1.609 3.288 3.752-.579 2.233-3.028 1.469-4.679 1.432-30.605-.675-61.208-1.5-91.814-2.12-16.091-.327-32.189-.292-48.284-.498-2.628-.033-5.36.532-8.399-1.088z" fill="#F58614"/><path d="M594.924 739.981c-13.507-2.846-27.022-5.657-40.519-8.548-27.785-5.95-55.563-11.938-83.341-17.921-8.951-1.928-8.975-1.955-4.719-10.394 3.912-7.735 7.85-15.456 11.815-23.163 4.506-8.788 4.534-8.812 12.666-4.004a139242.69 139242.69 0 0 1 88.914 52.62c5.346 3.165 10.664 6.382 15.994 9.576l-.81 1.834z" fill="#2EA446"/><path d="m780.308 792.519-6.63-1.422c-10.496-2.253-20.986-4.542-31.478-6.816-2.493-.089-4.35 1.339-6.289 2.447-35.168 20.112-70.305 40.28-105.521 60.302-3.789 2.154-4.82 3.96-1.859 7.803 13.276 17.231 26.456 34.54 39.667 51.824l112.11-114.138zM570.005 434.139c-12.347-.216-24.693-.413-37.041-.648-4.991-.094-6.431 1.776-4.57 6.688 4.214 11.118 8.374 22.264 12.19 33.53 1.632 4.82 4.498 7.302 9.13 8.984 18.394 6.674 36.731 13.513 55.068 20.349l-34.777-68.903zM626.622 432.136c-.42 1.272-.675 2.06-.943 2.844-1.178 3.452-2.276 6.91-.729 10.523 1.717 4.011 4.863 6.234 9.243 6.866 1.644.237 3.324.284 4.942.617 3.107.639 4.571 2.845 3.902 5.855-.415 1.862-1.104 3.669-1.535 5.53-1.639 7.08 2.617 12.815 10.028 13.603 1.577.167 3.175.275 4.715.613 2.918.642 4.325 2.959 3.653 5.819-.603 2.571-1.613 5.112-1.787 7.704-.416 6.231 3.89 10.785 10.319 11.395 1.353.128 2.723.193 4.051.45 3.636.707 5.08 2.987 4.129 6.45-.468 1.704-1.137 3.364-1.509 5.084-1.542 7.114 2.95 12.926 10.393 13.553 1.279.107 2.576.143 3.828.388 3.589.705 5.052 3.003 4.176 6.468-.559 2.208-1.424 4.372-1.725 6.608-.775 5.74 2.942 10.619 8.788 11.747 1.698.328 3.454.37 5.169.636 4.064.626 5.623 3.134 4.551 6.992-.687 2.469-1.556 4.973-1.684 7.489-.271 5.341 4.101 9.882 9.6 10.464 1.576.166 3.168.273 4.722.553 3.75.676 5.211 3.001 4.214 6.601-.472 1.704-1.11 3.371-1.478 5.094-1.524 7.118 3.171 13.093 10.64 13.626 1.283.091 2.579.099 3.845.287 3.768.559 5.399 3.12 4.364 6.708-.57 1.979-1.284 3.94-1.625 5.956-.989 5.831 2.939 11.209 8.924 12.357 1.405.27 2.851.339 4.271.538 4.005.56 6.317 2.792 6.441 6.713.149 4.699.037 9.409-.104 14.111-.019.585-.784 1.39-1.408 1.69-12.905 6.195-25.84 12.334-38.77 18.478-2.587 1.229-5.263 2.302-7.744 3.704-1.682.95-2.328.485-3.087-1.002-6.903-13.528-13.863-27.026-20.803-40.534-30.393-59.146-60.785-118.291-91.174-177.439-1.548-3.014-3.116-6.022-4.536-9.094-.205-.446.188-1.614.615-1.811 10.158-4.712 20.359-9.336 31.118-14.234zM753.388 723.359c.534 1.337.771 2.116 1.139 2.83 4.152 8.048 8.293 16.102 12.508 24.118 1.235 2.349 2.515 2.638 5.203 1.236a28241.153 28241.153 0 0 0 59.258-31.031c3.307-1.737 3.63-3.059 1.863-6.238-2.539-4.574-5.085-9.144-7.601-13.731-1.806-3.292-3.551-6.615-5.351-9.911-.813-1.49-2.011-1.845-3.599-1.044-1.614.814-3.286 1.519-4.893 2.344-14.804 7.615-29.597 15.25-44.399 22.867-4.084 2.101-8.226 4.101-12.253 6.304-.875.478-1.368 1.621-1.875 2.256zm-36.323-36.235c3.46-1.797 6.66-3.453 9.853-5.12 19.173-10.01 38.352-20.013 57.505-30.058 1.289-.676 2.311-.728 3.56.029 13.313 8.087 26.671 16.105 39.953 24.237 1.264.775 2.396 2.047 3.095 3.342 6.92 12.845 13.748 25.74 20.577 38.631 3.239 6.115 1.966 10.198-4.264 13.582-13.838 7.513-27.673 15.033-41.556 22.469-10.889 5.833-21.848 11.545-32.777 17.311-.533.281-1.067.564-1.611.824-5.524 2.637-9.65 1.43-12.462-3.85-4.015-7.544-7.931-15.137-11.839-22.736-7.308-14.213-14.581-28.442-21.865-42.667-2.683-5.238-5.353-10.482-8.169-15.994z" fill="#F58614"/><path d="M623.033 733.904c-4.862-13.291-9.707-26.587-14.571-39.877l-108.445-57.005c-2.696 5.264-5.443 10.498-8.308 15.662-3.136 5.648-2.444 8.458 3.188 11.736 36.552 21.279 72.905 42.912 109.325 64.428 5.231 3.091 10.433 6.233 15.723 9.213 1.62.912 3.826 2.244 4.024-1.16-.39-1.253-.623-2.14-.936-2.997zM348.524 524.139c.465 2.252 1.865 4.34 4.259 5.699 1.216.692 2.488 1.285 3.732 1.928 3.949 2.041 7.84 4.205 11.862 6.089 3.319 1.554 6.434.634 8.622-2.158 2.753-3.511 3.001-6.546.689-9.678-.656-.889-1.44-1.736-2.317-2.401-4.016-3.044-8.048-6.072-12.163-8.979-1.165-.824-2.581-1.545-3.969-1.761-6.736-1.047-11.792 4.109-10.715 11.261zm244.024 142.564c-3.94-2.049-7.886-4.092-11.822-6.151-8.844-4.624-17.688-9.249-26.525-13.889-6.604-3.467-13.193-6.963-19.796-10.433-3.223-1.695-6.469-3.346-9.691-5.043-9.232-4.86-18.446-9.748-27.685-14.595-5.675-2.977-11.387-5.88-17.065-8.848-4.284-2.238-8.531-4.542-12.811-6.788-9.953-5.22-19.914-10.428-29.877-15.63-8.597-4.49-17.209-8.951-25.803-13.45-6.481-3.394-12.934-6.842-19.414-10.239-8.248-4.326-16.52-8.608-24.767-12.939-7.128-3.743-14.304-7.405-21.328-11.337-4.276-2.394-7.072-6.171-8.443-10.931-1.089-3.783-1.446-7.632-.004-11.345 2.426-6.247 6.335-11.278 13.016-13.338 6.362-1.961 12.302-.802 17.711 3.122 7.229 5.242 14.493 10.436 21.737 15.657 7.954 5.731 15.895 11.477 23.851 17.204 12.333 8.879 24.68 17.74 37.011 26.621 19.349 13.937 38.685 27.891 58.035 41.825 17.158 12.356 34.328 24.692 51.49 37.043 8.47 6.095 16.936 12.196 25.393 18.308 2.293 1.657 4.551 3.363 6.824 5.045l-.037.131z" fill="#2EA446"/><path d="m781.531 845.6 1.169-1.192c9.518-9.7 19.039-19.396 28.544-29.109a25.107 25.107 0 0 0 2.288-2.694c2.691-3.653 3.039-9.252.839-12.758-4.155-6.619-12.879-7.578-18.541-1.872-10.018 10.096-19.922 20.302-29.896 30.442-.722.734-.767 1.175-.019 1.896 4.104 3.959 8.157 7.969 12.227 11.961l3.389 3.326zm-84.932 56.906c-.297.302-.49.462-.637.655-2.496 3.291-5.004 6.572-7.472 9.881-2.796 3.75-5.549 7.53-8.336 11.284-.596.803-.829 1.45.037 2.25a194.045 194.045 0 0 1 6.071 5.897c.587.591.96.751 1.736.14 5.627-4.432 11.304-8.799 16.956-13.197 1.616-1.256 3.203-2.55 4.924-3.923-.505-.496-.872-.933-1.315-1.275-.893-.692-.822-1.222.011-2.06 5.064-5.084 10.064-10.232 15.089-15.354 15.432-15.728 30.861-31.459 46.315-47.167.73-.743.8-1.177.029-1.887-1.689-1.554-3.292-3.205-4.929-4.816l-2.958-2.901-63.366 64.588-2.155-2.115zM760.243 830.732c1.861-.616 3.129.261 4.363 1.484 4.98 4.933 10.012 9.816 15.01 14.73 1.36 1.339 1.362 3.022.063 4.146-1.025.888-2.284.996-3.28.12a124.997 124.997 0 0 1-4.769-4.439c-3.346-3.264-6.644-6.574-9.991-9.837-1.447-1.409-2.927-2.764-2.461-5.119l1.065-1.085zM679.794 926.797c.247.104.561.143.731.32 1.645 1.72 3.266 3.463 4.894 5.199l-5.625-5.519z" fill="#F58614"/><path d="m696.599 902.506 2.155 2.115 63.368-64.588 2.956 2.901c1.638 1.611 3.24 3.262 4.929 4.816.771.71.703 1.144-.029 1.887-15.452 15.708-30.882 31.439-46.314 47.167-5.026 5.122-10.026 10.27-15.089 15.354-.833.838-.905 1.368-.01 2.06.441.342.809.779 1.314 1.274-1.721 1.374-3.309 2.668-4.924 3.924-5.653 4.398-11.329 8.765-16.956 13.197-.777.611-1.149.451-1.736-.141a196.234 196.234 0 0 0-6.07-5.896c-.868-.8-.634-1.447-.039-2.25 2.788-3.754 5.54-7.534 8.336-11.284 2.469-3.309 4.976-6.59 7.472-9.881.148-.193.341-.353.637-.655zM781.531 845.6l-3.389-3.326c-4.07-3.991-8.123-8.002-12.227-11.961-.748-.721-.703-1.162.019-1.896 9.974-10.14 19.878-20.346 29.896-30.442 5.662-5.706 14.386-4.747 18.541 1.872 2.2 3.506 1.852 9.105-.839 12.758a25.01 25.01 0 0 1-2.288 2.694c-9.505 9.713-19.026 19.409-28.544 29.109l-1.169 1.192zM786.863 776.211l69.152-37.271c2.817-1.517 5.976 1.353 4.733 4.303l-19.309 45.801a3.392 3.392 0 0 1-3.696 2.025l-49.843-8.532c-3.178-.544-3.874-4.797-1.037-6.326z" fill="#F58614"/><path d="M331.608 592.576c.645.05.796-.448 1.027-.893a1652.097 1652.097 0 0 1 19.001-35.712c.827-1.508.916-1.537 2.505-.696 3.987 2.108 7.951 4.26 11.951 6.343.841.439.995.861.541 1.687-1.194 2.172-2.297 4.397-3.504 6.564-.558 1.001-.476 1.628.623 2.137a36.067 36.067 0 0 1 3.455 1.857c.816.492 1.304.316 1.724-.494 1.182-2.282 2.465-4.515 3.566-6.834.499-1.049.939-1.03 1.838-.533a410.007 410.007 0 0 0 10.257 5.492c.924.477 1.027.952.555 1.804-1.158 2.091-2.176 4.264-3.419 6.3-.747 1.222-.515 1.781.723 2.324 1.15.504 2.237 1.172 3.306 1.84.764.476 1.182.32 1.58-.462 1.168-2.289 2.415-4.538 3.579-6.83.467-.92.917-1.107 1.889-.564a266.875 266.875 0 0 0 9.555 5.081c.964.489 1.131.972.627 1.888-1.172 2.135-2.231 4.333-3.454 6.436-.645 1.108-.429 1.667.687 2.169a26.653 26.653 0 0 1 3.333 1.794c.906.574 1.32.286 1.755-.57 1.143-2.252 2.395-4.448 3.525-6.705.487-.971.968-1.051 1.892-.533a305.18 305.18 0 0 0 9.65 5.188c.892.457.961.893.536 1.68-1.183 2.18-2.304 4.393-3.51 6.561-.532.956-.625 1.567.598 2.053 1.122.446 2.17 1.104 3.202 1.747 1.023.637 1.623.351 2.139-.661 1.127-2.21 2.347-4.372 3.463-6.587.432-.859.872-.949 1.688-.501 3.239 1.784 6.5 3.528 9.784 5.23.95.492.933 1.031.497 1.839-1.22 2.261-2.377 4.559-3.623 6.808-.428.775-.336 1.179.475 1.567 1.26.602 2.507 1.249 3.691 1.989.962.603 1.381.291 1.837-.623 1.107-2.218 2.34-4.374 3.464-6.585.507-.996 1.032-1.119 2.02-.561a218.15 218.15 0 0 0 9.063 4.854c1.19.598 1.174 1.167.58 2.199-1.259 2.188-2.391 4.449-3.595 6.669-.297.547-.423.943.289 1.296a58.275 58.275 0 0 1 4.043 2.184c.9.543 1.327.283 1.765-.582 1.099-2.174 2.312-4.288 3.415-6.459.546-1.076 1.097-1.267 2.218-.655 5.939 3.239 11.923 6.396 17.895 9.575 1.457.776 1.516.932.747 2.377-.868 1.631-.975 1.66-2.414.883-2.976-1.608-5.968-3.188-8.936-4.809-.689-.376-1.333-.428-2.066-.18-5.848 1.984-11.857 3.416-17.805 5.045-6.642 1.821-13.226 3.867-19.959 5.341-1.497.328-2.587.999-3.287 2.468-1.105 2.318-2.429 4.527-3.61 6.808-.424.818-.835.984-1.694.526a95283.188 95283.188 0 0 0-88.653-47.396c-.861-.46-1.66-1.11-2.708-1.142l-.316-1.036z" fill="#2EA446"/><path d="M430.573 696.464c-1.161-.689-2.364-1.314-3.573-1.916-.807-.4-1.028-.856-.572-1.708a10491.018 10491.018 0 0 0 16.275-30.544c.448-.842.902-1.124 1.794-.589 1.16.692 2.378 1.287 3.567 1.929.315.171.656.314.823.668.092.394-.122.703-.287 1.016-5.407 10.192-10.823 20.38-16.216 30.579-.453.856-.933 1.087-1.811.565zm17.431-41.969c-.5-1.879.38-3.451 2.215-3.957 1.888-.522 3.545.421 4.041 2.298.471 1.782-.597 3.619-2.365 4.07-1.763.449-3.402-.566-3.891-2.411zm-3.632 59.023c12.673-23.912 25.385-47.803 38.089-71.699.677-1.275 1.337-2.559 2.021-3.829.41-.763.367-1.268-.516-1.728-3.798-1.982-7.636-3.907-11.309-6.106-1.972-1.181-3.803-1.257-5.885-.668-10.096 2.858-20.203 5.674-30.281 8.498-1.878.021-2.708 1.218-3.494 2.721-9.157 17.505-18.394 34.968-27.845 52.317-.521.959-.279 1.32.548 1.76a10490.948 10490.948 0 0 1 36.407 19.436c1.146.616 1.654.451 2.265-.702z" fill="#2EA446"/><path d="M680.075 942.058c-19.986-26.226-40.246-52.238-59.933-78.698-4.397-5.912-7.683-6.219-13.66-2.756-44.05 25.514-88.28 50.702-132.442 76.013-6.33 3.627-12.604 7.355-19.634 11.463 3.086 1.82 5.336 1.381 7.47 1.382 12.782.004 25.564-.005 38.346-.002-.112 7.757-.176 15.514-.313 23.272-.015.801.001 1.62.143 2.406.56 3.144 3.146 5.138 6.493 5.068 3.251-.066 5.617-2.142 6.024-5.357.148-1.169.191-2.357.211-3.537.093-5.534.17-11.067.234-16.6.014-1.084.468-1.878 1.431-2.322.899-.416 1.827-.276 2.607.286.997.718.964 1.857.95 2.934-.073 6.18-.169 12.359-.237 18.538-.013 1.233.027 2.47.108 3.702.091 1.368.937 2.118 2.217 2.412 2.195.508 3.827-.821 3.871-3.262.119-6.716.173-13.434.275-20.15.013-.908.052-1.838.258-2.716.291-1.234 1.27-1.681 2.454-1.632 1.169.047 1.922.662 2.052 1.864.08.746.102 1.502.094 2.251-.074 6.717-.16 13.433-.249 20.151-.016 1.289.175 2.465 1.421 3.197 2.367 1.387 4.816.207 4.912-2.601.215-6.335.227-12.678.331-19.018.02-1.234.061-2.47.132-3.704.083-1.445.955-2.093 2.327-2.138 1.394-.047 2.354.776 2.512 2.168.072.637.061 1.286.053 1.93-.068 5.75-.149 11.499-.209 17.248-.015 1.343-.05 2.694.074 4.026.188 2.022 1.226 2.924 3.148 2.926 1.707.004 2.851-1.014 3.122-2.85.101-.688.092-1.394.102-2.091.094-6.771.162-13.541.28-20.311.034-1.936.863-2.918 2.279-2.936 1.621-.021 2.557 1.034 2.581 2.996.022 1.719-.014 3.439-.032 5.158-.062 5.642-.176 11.284-.166 16.925.004 2.139 1.102 3.132 3.061 3.156 1.824.023 2.833-.955 3.06-3.027.077-.692.068-1.394.079-2.093.096-6.663.168-13.325.294-19.987.039-1.968.926-2.95 2.436-2.95 1.666.001 2.411.933 2.419 3.097.007 1.504-.035 3.009-.053 4.513-.074 5.588-.148 11.176-.218 16.766-.013 1.146.066 2.28 1.03 3.094 1.921 1.626 4.777.647 5.234-1.824.175-.944.196-1.924.211-2.889.108-6.661.165-13.324.307-19.985.048-2.29 2.108-3.418 3.913-2.238 1.116.731 1.067 1.916 1.053 3.042-.068 6.125-.162 12.25-.233 18.376-.015 1.18-.025 2.368.075 3.541.158 1.84 1.248 2.784 3.078 2.796 1.85.013 3.008-1.215 3.044-3.389.111-6.555.167-13.111.267-19.666.015-1.017.067-2.048.249-3.045.227-1.235 1.134-1.8 2.338-1.781 1.224.02 2.051.625 2.19 1.91.08.746.101 1.502.093 2.252a7395.09 7395.09 0 0 1-.255 19.988c-.018 1.219.086 2.378 1.161 3.186 1.702 1.278 5.12.966 5.186-2.292.13-6.394.208-12.787.316-19.179.022-1.235.062-2.471.132-3.704.082-1.449.962-2.088 2.331-2.135 1.397-.046 2.36.772 2.515 2.163.077.691.065 1.395.057 2.092-.069 5.696-.153 11.392-.217 17.087-.015 1.342-.05 2.693.073 4.025.184 2.019 1.221 2.921 3.147 2.931 1.706.008 2.85-1.01 3.121-2.848.101-.688.092-1.394.103-2.091.093-6.771.161-13.541.28-20.311.033-1.937.862-2.917 2.278-2.936 1.622-.021 2.558 1.036 2.582 2.996.022 1.719-.011 3.439-.03 5.159-.06 5.588-.17 11.176-.165 16.763.001 2.272 1.072 3.3 3.072 3.32 1.912.021 3.021-1.102 3.156-3.302.088-1.445.104-2.897.097-4.348-.029-5.801-.108-11.604-.108-17.406 0-1.692.958-2.692 2.334-2.711 1.48-.021 2.518 1.013 2.569 2.693.049 1.664.005 3.331-.011 4.998-.061 5.802-.18 11.605-.166 17.408.004 2.125 1.053 3.114 2.877 3.153 2.076.047 3.085-.913 3.248-3.129.059-.804.053-1.612.065-2.418.092-6.501.159-13.002.286-19.504.038-1.976 1.041-3.076 2.561-3.057 1.555.02 2.344 1.092 2.316 3.192-.088 6.877-.188 13.755-.272 20.633-.008.695-.02 1.407.108 2.086.208 1.116.801 1.961 1.959 2.34 2.209.721 4.13-.471 4.277-2.91.188-3.108.157-6.229.213-9.345.082-4.512.123-9.025.255-13.536.045-1.517 1.06-2.357 2.497-2.329 1.29.025 2.248.954 2.391 2.354.049.48.043.967.036 1.45-.079 5.965-.169 11.928-.237 17.893-.016 1.288-.027 2.583.088 3.863.168 1.885 1.594 2.938 3.473 2.677 1.709-.239 2.595-1.407 2.647-3.645.161-6.93.293-13.859.44-20.79.05-2.416.773-3.457 2.402-3.492 1.524-.032 2.326 1.156 2.303 3.548-.053 5.534-.147 11.068-.199 16.603-.008.909.024 1.835.184 2.727.442 2.494 1.906 4.169 4.318 4.941 2.457.787 4.658.259 6.576-1.459 1.044-.956 1.608-2.149 1.745-3.536.107-1.068.197-2.142.212-3.214.111-8.186.212-16.371.316-24.558h10.575c2.149-.001 5.162 1.071 6.248-1.065 1.325-2.611-1.6-4.448-3.03-6.323zM308.116 765.019l105.952 15.566a5.72 5.72 0 0 0 2.939-1.489c6.37-5.927 7.95-15.457 3.793-23.053-1.24-2.266-2.909-3.744-5.683-3.911-2.997-.18-5.977-.653-8.962-1.013-10.904-1.315-17.8-1.803-25.38-2.434l-7.007-10.466c-3.397-5.076-6.791-10.156-10.217-15.212-.648-.958-.842-1.818-.351-2.942a21.37 21.37 0 0 0 1.765-7.765c.327-8.237-2.616-15.06-8.789-20.516-4.341-3.837-9.612-5.248-15.183-5.882-.832-.095-1.682-.028-2.446-.035.756 1.217 1.449 2.373 2.181 3.503 1.997 3.084 4.119 6.094 5.997 9.249 3.743 6.285 1.382 14.155-5.677 17.553-4.74 2.283-10.929 1.119-14.247-2.955-2.445-3.001-4.47-6.345-6.685-9.535-.826-1.191-1.66-2.378-2.521-3.611-1.115 1.872-2.345 6.417-2.516 9.427-.377 6.662 1.487 12.635 5.888 17.654 4.912 5.601 11.145 8.601 18.664 8.665 1.277.012 2.068.468 2.778 1.532 1.711 2.564 3.428 5.123 5.14 7.686-21.125-2.559-42.25-5.12-63.374-7.683-2.604-.316-2.603-.324-2.245-2.913l5.821-42.113c.247-1.78-.027-3.355-1.703-4.386-1.64-1.008-3.237-.788-4.688.332-5.577 4.306-11.458 8.231-16.46 13.263-8.896 8.949-14.55 19.6-16.956 31.985-1.28 6.593-2.017 13.265-2.92 19.912-1.993 14.668-4.253 29.3-5.957 44.008l1.887 2.491c.958.2 1.91.454 2.88.59a7521.151 7521.151 0 0 0 23.204 3.219c3.926.54 5.394-.591 5.945-4.575 1.699-12.26 3.42-24.518 5.045-36.789.212-1.601.708-1.927 2.27-1.68 9.269 1.469 18.545 2.904 27.818 4.351v-.028zM667.273 354.554c.004.671-.238 1.011-.808 1.334-2.987 1.688-5.943 3.428-8.915 5.144-.82.473-1.66.91-2.479 1.388-.292.169-.51.086-.77-.056-3.555-1.944-7.03-4.03-10.548-6.038l-.127-.074c-1.703-1.01-1.385-.439-1.405-2.432-.019-1.863-.004-3.726-.004-5.59 0-2.189.008-4.378-.01-6.569-.004-.46.139-.749.551-.984 3.849-2.187 7.651-4.457 11.527-6.599.292-.161.536-.216.86-.028 3.76 2.178 7.53 4.338 11.31 6.48.582.33.826.686.82 1.376a846.424 846.424 0 0 0-.002 12.648zm81.061 18.959c-34.74-23.124-69.539-46.155-104.225-69.362-4.099-2.743-6.752-2.692-10.211 1.218-8.521 9.634-17.077 19.236-25.62 28.851l-.687-.71c-4.248-4.385-8.501-8.765-12.738-13.161-.372-.386-.594-.424-.972-.001-.563.628-1.218 1.173-1.81 1.775-.344.349-.586.307-.916-.039a356.206 356.206 0 0 0-4.608-4.755c-.298-.302-.26-.493.019-.756.659-.622 1.285-1.281 1.956-1.89.335-.303.367-.506.032-.839-1.165-1.168-2.285-2.383-3.461-3.539-.463-.453-.564-.837-.299-1.46 2.791-6.542 5.544-13.1 8.324-19.646.193-.454.123-.731-.213-1.083-2.919-3.063-6.248-5.628-9.692-8.052-6.036-4.249-12.667-7.291-19.655-9.607a62.498 62.498 0 0 0-15.732-3.046 46.006 46.006 0 0 0-13.204 1.065c-.496.112-.724.309-.848.807-1.08 4.344-1.606 8.737-1.449 13.224.109 3.076.389 6.125.941 9.149.94 5.151 2.524 10.105 4.466 14.964 3.232 8.095 8.058 15.152 13.793 21.642.284.323.561.422.973.243 2.024-.876 4.103-1.617 6.162-2.407 4.678-1.793 9.342-3.622 14-5.467.502-.2.781-.094 1.12.265 1.188 1.26 2.41 2.489 3.604 3.745.297.312.501.316.803.004.632-.652 1.312-1.255 1.944-1.907.304-.313.499-.298.798.017a437.556 437.556 0 0 0 4.688 4.849c.276.28.318.472.012.754-.652.6-1.254 1.259-1.926 1.834-.433.369-.396.6-.018.98 1.625 1.641 3.224 3.308 4.832 4.968 3.14 3.242 6.277 6.486 9.417 9.728-20.735 23.313-41.488 46.608-62.222 69.92-1.139 1.28-3.346 2.466-2.486 4.456 1.003 2.321 3.564 1.36 5.44 1.366 21.708.071 43.417.046 65.127.046 10.66.365 21.594 3.6 32.018-.182 37.346-13.545 74.609-27.325 111.9-41.03 1.651-.608 4.008-.832 4.384-2.712.507-2.543-2.172-3.162-3.761-4.219z" fill="#F58614"/><path d="M654.821 343.14c-2.934.024-5.275 2.418-5.127 5.06-.117 2.798 2.319 5.12 5.072 5.109 2.643-.012 5.111-2.375 5.023-5.137-.088-2.746-2.287-5.055-4.968-5.032zM612.854 519.038c-18.723-6.935-37.441-13.875-56.164-20.809-1.469-.543-2.95-1.054-5.286-1.887-2.928 2.324-.52 5.145.256 7.281 18.661 51.324 37.43 102.608 56.225 153.881.757 2.063.981 5.262 3.458 5.41 2.354.14 3.152-2.931 4.311-4.806 12.372-20.017 24.715-40.052 37.067-60.082l-39.867-78.988zM696.117 722.268a6511.818 6511.818 0 0 1-1.955-42.138l-35.036-69.418c-13.529 21.928-27.053 43.859-40.603 65.774-1.73 2.798-1.722 5.412-.598 8.456 7.442 20.156 14.782 40.35 22.1 60.554 1.092 3.015 2.69 4.928 6.037 5.612 15.347 3.139 30.671 6.4 45.948 9.876 4.66 1.06 6.06-.213 5.637-5.065-.976-11.186-.968-22.434-1.53-33.651zM707.166 705.896c.132 3.059.253 6.116.385 9.175.51 11.673 1.058 23.356 2.058 34.99 1.278 14.875 1.469 14.924 15.696 18.006 4.949 1.073 9.902 2.128 14.853 3.196l-32.992-65.367z" fill="#F58614"/></svg>